<svg xmlns="http://www.w3.org/2000/svg" xmlns:xlink="http://www.w3.org/1999/xlink" width="140" zoomAndPan="magnify" viewBox="0 0 104.88 30.000001" height="40" preserveAspectRatio="xMidYMid meet" version="1.0"><defs><g/><clipPath id="8ca876a6d9"><path d="M 10 1.167969 L 23 1.167969 L 23 7 L 10 7 Z M 10 1.167969 " clip-rule="nonzero"/></clipPath><clipPath id="0a0ca3cbb6"><path d="M 7 7 L 28.488281 7 L 28.488281 28 L 7 28 Z M 7 7 " clip-rule="nonzero"/></clipPath><clipPath id="77afd9372e"><path d="M 4.535156 9 L 8 9 L 8 27 L 4.535156 27 Z M 4.535156 9 " clip-rule="nonzero"/></clipPath><clipPath id="a5b45c9180"><path d="M 10 1.167969 L 23 1.167969 L 23 7 L 10 7 Z M 10 1.167969 " clip-rule="nonzero"/></clipPath><clipPath id="b6e255d732"><path d="M 71 19 L 80 19 L 80 29.03125 L 71 29.03125 Z M 71 19 " clip-rule="nonzero"/></clipPath><clipPath id="95e34dec84"><path d="M 91 19 L 100 19 L 100 29.03125 L 91 29.03125 Z M 91 19 " clip-rule="nonzero"/></clipPath><clipPath id="212d72d1ae"><path d="M 0.0585938 3 L 9 3 L 9 13 L 0.0585938 13 Z M 0.0585938 3 " clip-rule="nonzero"/></clipPath><clipPath id="919b24a709"><path d="M 25 5 L 32.574219 5 L 32.574219 13 L 25 13 Z M 25 5 " clip-rule="nonzero"/></clipPath><clipPath id="c6574ec5f4"><path d="M 0.0585938 3 L 9 3 L 9 13 L 0.0585938 13 Z M 0.0585938 3 " clip-rule="nonzero"/></clipPath><clipPath id="109222244e"><path d="M 25 5 L 32.574219 5 L 32.574219 13 L 25 13 Z M 25 5 " clip-rule="nonzero"/></clipPath><clipPath id="a20cee60e6"><rect x="0" width="33" y="0" height="17"/></clipPath></defs><g clip-path="url(#8ca876a6d9)"><path fill="#d50c2d" d="M 22.117188 6.84375 L 20.898438 6.84375 C 20.890625 4.429688 18.929688 2.476562 16.515625 2.476562 C 14.101562 2.476562 12.144531 4.425781 12.132812 6.835938 L 10.921875 6.835938 C 10.917969 6.742188 10.917969 6.648438 10.917969 6.558594 C 11.078125 3.605469 13.523438 1.257812 16.515625 1.257812 C 19.511719 1.257812 21.960938 3.609375 22.109375 6.570312 C 22.113281 6.597656 22.113281 6.625 22.113281 6.652344 C 22.113281 6.703125 22.117188 6.753906 22.117188 6.804688 C 22.117188 6.816406 22.117188 6.832031 22.117188 6.84375 Z M 22.117188 6.84375 " fill-opacity="1" fill-rule="evenodd"/></g><g clip-path="url(#0a0ca3cbb6)"><path fill="#d50c2d" d="M 28.359375 24.640625 C 28.199219 23.074219 28.042969 21.503906 27.886719 19.933594 C 27.800781 19.121094 27.714844 18.304688 27.632812 17.488281 C 27.558594 16.792969 27.484375 16.101562 27.414062 15.40625 C 27.273438 14.019531 27.132812 12.632812 26.992188 11.242188 C 26.925781 10.613281 26.855469 9.984375 26.785156 9.335938 L 25.242188 9.335938 C 25.179688 8.800781 25.125 8.289062 25.066406 7.761719 L 8.511719 7.761719 C 8.0625 14.445312 7.609375 21.117188 7.160156 27.800781 L 25.859375 27.800781 L 25.496094 18.5625 L 25.96875 18.5625 C 26.210938 21.324219 26.457031 24.066406 26.703125 26.871094 C 27.242188 26.226562 27.738281 25.628906 28.242188 25.042969 C 28.351562 24.917969 28.378906 24.800781 28.359375 24.640625 Z M 8.769531 26.785156 L 9.230469 14.75 L 10.339844 25.402344 L 19.277344 26.785156 Z M 8.769531 26.785156 " fill-opacity="1" fill-rule="evenodd"/></g><g clip-path="url(#77afd9372e)"><path fill="#fafafa" d="M 7.523438 9.335938 C 7.117188 15.195312 6.710938 21.027344 6.304688 26.933594 C 6.035156 26.628906 5.8125 26.382812 5.601562 26.136719 C 5.40625 25.910156 5.222656 25.675781 5.027344 25.449219 C 4.523438 24.855469 4.53125 24.855469 4.609375 24.085938 C 4.792969 22.292969 4.96875 20.503906 5.144531 18.714844 C 5.351562 16.605469 5.5625 14.496094 5.769531 12.382812 C 5.859375 11.449219 5.953125 10.511719 6.03125 9.574219 C 6.046875 9.386719 6.105469 9.324219 6.296875 9.332031 C 6.691406 9.347656 7.085938 9.335938 7.523438 9.335938 Z M 7.523438 9.335938 " fill-opacity="1" fill-rule="evenodd"/></g><g clip-path="url(#a5b45c9180)"><path fill="#d50c2d" d="M 22.117188 6.804688 C 22.117188 6.753906 22.113281 6.703125 22.113281 6.652344 C 22.113281 6.625 22.113281 6.597656 22.109375 6.570312 C 21.960938 3.609375 19.511719 1.257812 16.515625 1.257812 C 13.523438 1.257812 11.078125 3.605469 10.917969 6.558594 C 10.914062 6.65625 10.914062 6.757812 10.914062 6.859375 L 12.132812 6.859375 L 12.132812 6.835938 C 12.144531 4.425781 14.101562 2.476562 16.515625 2.476562 C 18.929688 2.476562 20.890625 4.429688 20.898438 6.84375 L 20.898438 6.859375 L 22.117188 6.859375 L 22.117188 6.84375 C 22.117188 6.832031 22.117188 6.816406 22.117188 6.804688 Z M 22.117188 6.804688 " fill-opacity="1" fill-rule="evenodd"/></g><g fill="#fafafa" fill-opacity="1"><g transform="translate(31.981084, 26.639659)"><g><path d="M 5.1875 -9.390625 C 6.007812 -9.390625 6.726562 -9.25 7.34375 -8.96875 C 7.957031 -8.695312 8.429688 -8.304688 8.765625 -7.796875 C 9.097656 -7.285156 9.265625 -6.679688 9.265625 -5.984375 C 9.265625 -5.296875 9.097656 -4.691406 8.765625 -4.171875 C 8.429688 -3.660156 7.957031 -3.269531 7.34375 -3 C 6.726562 -2.726562 6.007812 -2.59375 5.1875 -2.59375 L 3.28125 -2.59375 L 3.28125 0 L 1.109375 0 L 1.109375 -9.390625 Z M 5.0625 -4.359375 C 5.71875 -4.359375 6.210938 -4.5 6.546875 -4.78125 C 6.890625 -5.0625 7.0625 -5.460938 7.0625 -5.984375 C 7.0625 -6.515625 6.890625 -6.921875 6.546875 -7.203125 C 6.210938 -7.484375 5.71875 -7.625 5.0625 -7.625 L 3.28125 -7.625 L 3.28125 -4.359375 Z M 5.0625 -4.359375 "/></g></g></g><g fill="#fafafa" fill-opacity="1"><g transform="translate(41.017383, 26.639659)"><g><path d="M 3.875 -7.328125 C 5 -7.328125 5.859375 -7.0625 6.453125 -6.53125 C 7.054688 -6 7.359375 -5.195312 7.359375 -4.125 L 7.359375 0 L 5.390625 0 L 5.390625 -0.90625 C 5.003906 -0.226562 4.269531 0.109375 3.1875 0.109375 C 2.632812 0.109375 2.15625 0.015625 1.75 -0.171875 C 1.34375 -0.359375 1.03125 -0.617188 0.8125 -0.953125 C 0.601562 -1.285156 0.5 -1.660156 0.5 -2.078125 C 0.5 -2.753906 0.75 -3.28125 1.25 -3.65625 C 1.757812 -4.039062 2.539062 -4.234375 3.59375 -4.234375 L 5.265625 -4.234375 C 5.265625 -4.691406 5.125 -5.039062 4.84375 -5.28125 C 4.5625 -5.53125 4.144531 -5.65625 3.59375 -5.65625 C 3.207031 -5.65625 2.828125 -5.59375 2.453125 -5.46875 C 2.085938 -5.351562 1.773438 -5.195312 1.515625 -5 L 0.765625 -6.453125 C 1.160156 -6.734375 1.628906 -6.945312 2.171875 -7.09375 C 2.722656 -7.25 3.289062 -7.328125 3.875 -7.328125 Z M 3.71875 -1.296875 C 4.070312 -1.296875 4.390625 -1.378906 4.671875 -1.546875 C 4.953125 -1.710938 5.148438 -1.957031 5.265625 -2.28125 L 5.265625 -3.015625 L 3.828125 -3.015625 C 2.960938 -3.015625 2.53125 -2.734375 2.53125 -2.171875 C 2.53125 -1.898438 2.632812 -1.6875 2.84375 -1.53125 C 3.0625 -1.375 3.351562 -1.296875 3.71875 -1.296875 Z M 3.71875 -1.296875 "/></g></g></g><g fill="#fafafa" fill-opacity="1"><g transform="translate(48.509516, 26.639659)"><g><path d="M 4.453125 0.109375 C 3.679688 0.109375 2.988281 -0.046875 2.375 -0.359375 C 1.769531 -0.679688 1.289062 -1.125 0.9375 -1.6875 C 0.59375 -2.25 0.421875 -2.890625 0.421875 -3.609375 C 0.421875 -4.328125 0.59375 -4.96875 0.9375 -5.53125 C 1.289062 -6.09375 1.769531 -6.53125 2.375 -6.84375 C 2.988281 -7.164062 3.679688 -7.328125 4.453125 -7.328125 C 5.210938 -7.328125 5.875 -7.164062 6.4375 -6.84375 C 7.007812 -6.53125 7.425781 -6.078125 7.6875 -5.484375 L 6.0625 -4.609375 C 5.6875 -5.273438 5.144531 -5.609375 4.4375 -5.609375 C 3.894531 -5.609375 3.441406 -5.425781 3.078125 -5.0625 C 2.722656 -4.707031 2.546875 -4.222656 2.546875 -3.609375 C 2.546875 -2.992188 2.722656 -2.503906 3.078125 -2.140625 C 3.441406 -1.785156 3.894531 -1.609375 4.4375 -1.609375 C 5.15625 -1.609375 5.695312 -1.941406 6.0625 -2.609375 L 7.6875 -1.71875 C 7.425781 -1.144531 7.007812 -0.695312 6.4375 -0.375 C 5.875 -0.0507812 5.210938 0.109375 4.453125 0.109375 Z M 4.453125 0.109375 "/></g></g></g><g fill="#fafafa" fill-opacity="1"><g transform="translate(55.652535, 26.639659)"><g><path d="M 4.0625 -2.828125 L 3.0625 -1.84375 L 3.0625 0 L 0.96875 0 L 0.96875 -9.953125 L 3.0625 -9.953125 L 3.0625 -4.328125 L 6.125 -7.21875 L 8.609375 -7.21875 L 5.609375 -4.15625 L 8.890625 0 L 6.34375 0 Z M 4.0625 -2.828125 "/></g></g></g><g fill="#fafafa" fill-opacity="1"><g transform="translate(63.722048, 26.639659)"><g><path d="M 3.875 -7.328125 C 5 -7.328125 5.859375 -7.0625 6.453125 -6.53125 C 7.054688 -6 7.359375 -5.195312 7.359375 -4.125 L 7.359375 0 L 5.390625 0 L 5.390625 -0.90625 C 5.003906 -0.226562 4.269531 0.109375 3.1875 0.109375 C 2.632812 0.109375 2.15625 0.015625 1.75 -0.171875 C 1.34375 -0.359375 1.03125 -0.617188 0.8125 -0.953125 C 0.601562 -1.285156 0.5 -1.660156 0.5 -2.078125 C 0.5 -2.753906 0.75 -3.28125 1.25 -3.65625 C 1.757812 -4.039062 2.539062 -4.234375 3.59375 -4.234375 L 5.265625 -4.234375 C 5.265625 -4.691406 5.125 -5.039062 4.84375 -5.28125 C 4.5625 -5.53125 4.144531 -5.65625 3.59375 -5.65625 C 3.207031 -5.65625 2.828125 -5.59375 2.453125 -5.46875 C 2.085938 -5.351562 1.773438 -5.195312 1.515625 -5 L 0.765625 -6.453125 C 1.160156 -6.734375 1.628906 -6.945312 2.171875 -7.09375 C 2.722656 -7.25 3.289062 -7.328125 3.875 -7.328125 Z M 3.71875 -1.296875 C 4.070312 -1.296875 4.390625 -1.378906 4.671875 -1.546875 C 4.953125 -1.710938 5.148438 -1.957031 5.265625 -2.28125 L 5.265625 -3.015625 L 3.828125 -3.015625 C 2.960938 -3.015625 2.53125 -2.734375 2.53125 -2.171875 C 2.53125 -1.898438 2.632812 -1.6875 2.84375 -1.53125 C 3.0625 -1.375 3.351562 -1.296875 3.71875 -1.296875 Z M 3.71875 -1.296875 "/></g></g></g><g clip-path="url(#b6e255d732)"><g fill="#fafafa" fill-opacity="1"><g transform="translate(71.214181, 26.639659)"><g><path d="M 8.421875 -7.21875 L 8.421875 -1.203125 C 8.421875 0.117188 8.070312 1.101562 7.375 1.75 C 6.6875 2.394531 5.679688 2.71875 4.359375 2.71875 C 3.660156 2.71875 3 2.628906 2.375 2.453125 C 1.75 2.285156 1.226562 2.039062 0.8125 1.71875 L 1.65625 0.21875 C 1.957031 0.46875 2.335938 0.664062 2.796875 0.8125 C 3.265625 0.957031 3.734375 1.03125 4.203125 1.03125 C 4.921875 1.03125 5.453125 0.863281 5.796875 0.53125 C 6.148438 0.207031 6.328125 -0.28125 6.328125 -0.9375 L 6.328125 -1.25 C 5.773438 -0.644531 5.015625 -0.34375 4.046875 -0.34375 C 3.378906 -0.34375 2.769531 -0.488281 2.21875 -0.78125 C 1.664062 -1.070312 1.226562 -1.484375 0.90625 -2.015625 C 0.582031 -2.546875 0.421875 -3.15625 0.421875 -3.84375 C 0.421875 -4.53125 0.582031 -5.132812 0.90625 -5.65625 C 1.226562 -6.1875 1.664062 -6.597656 2.21875 -6.890625 C 2.769531 -7.179688 3.378906 -7.328125 4.046875 -7.328125 C 5.085938 -7.328125 5.878906 -6.984375 6.421875 -6.296875 L 6.421875 -7.21875 Z M 4.453125 -2.0625 C 5.003906 -2.0625 5.457031 -2.222656 5.8125 -2.546875 C 6.164062 -2.878906 6.34375 -3.3125 6.34375 -3.84375 C 6.34375 -4.363281 6.164062 -4.785156 5.8125 -5.109375 C 5.457031 -5.441406 5.003906 -5.609375 4.453125 -5.609375 C 3.898438 -5.609375 3.441406 -5.441406 3.078125 -5.109375 C 2.722656 -4.785156 2.546875 -4.363281 2.546875 -3.84375 C 2.546875 -3.3125 2.722656 -2.878906 3.078125 -2.546875 C 3.441406 -2.222656 3.898438 -2.0625 4.453125 -2.0625 Z M 4.453125 -2.0625 "/></g></g></g></g><g fill="#fafafa" fill-opacity="1"><g transform="translate(79.820795, 26.639659)"><g><path d="M 0.96875 -7.21875 L 3.0625 -7.21875 L 3.0625 0 L 0.96875 0 Z M 2.015625 -8.234375 C 1.628906 -8.234375 1.316406 -8.34375 1.078125 -8.5625 C 0.835938 -8.789062 0.71875 -9.066406 0.71875 -9.390625 C 0.71875 -9.722656 0.835938 -10 1.078125 -10.21875 C 1.316406 -10.445312 1.628906 -10.5625 2.015625 -10.5625 C 2.398438 -10.5625 2.710938 -10.453125 2.953125 -10.234375 C 3.203125 -10.023438 3.328125 -9.757812 3.328125 -9.4375 C 3.328125 -9.082031 3.203125 -8.789062 2.953125 -8.5625 C 2.710938 -8.34375 2.398438 -8.234375 2.015625 -8.234375 Z M 2.015625 -8.234375 "/></g></g></g><g fill="#fafafa" fill-opacity="1"><g transform="translate(83.069846, 26.639659)"><g><path d="M 5.359375 -7.328125 C 6.253906 -7.328125 6.972656 -7.054688 7.515625 -6.515625 C 8.066406 -5.984375 8.34375 -5.191406 8.34375 -4.140625 L 8.34375 0 L 6.25 0 L 6.25 -3.8125 C 6.25 -4.382812 6.125 -4.8125 5.875 -5.09375 C 5.625 -5.375 5.265625 -5.515625 4.796875 -5.515625 C 4.265625 -5.515625 3.84375 -5.347656 3.53125 -5.015625 C 3.21875 -4.691406 3.0625 -4.207031 3.0625 -3.5625 L 3.0625 0 L 0.96875 0 L 0.96875 -7.21875 L 2.96875 -7.21875 L 2.96875 -6.375 C 3.238281 -6.675781 3.578125 -6.910156 3.984375 -7.078125 C 4.398438 -7.242188 4.859375 -7.328125 5.359375 -7.328125 Z M 5.359375 -7.328125 "/></g></g></g><g clip-path="url(#95e34dec84)"><g fill="#fafafa" fill-opacity="1"><g transform="translate(91.555622, 26.639659)"><g><path d="M 8.421875 -7.21875 L 8.421875 -1.203125 C 8.421875 0.117188 8.070312 1.101562 7.375 1.75 C 6.6875 2.394531 5.679688 2.71875 4.359375 2.71875 C 3.660156 2.71875 3 2.628906 2.375 2.453125 C 1.75 2.285156 1.226562 2.039062 0.8125 1.71875 L 1.65625 0.21875 C 1.957031 0.46875 2.335938 0.664062 2.796875 0.8125 C 3.265625 0.957031 3.734375 1.03125 4.203125 1.03125 C 4.921875 1.03125 5.453125 0.863281 5.796875 0.53125 C 6.148438 0.207031 6.328125 -0.28125 6.328125 -0.9375 L 6.328125 -1.25 C 5.773438 -0.644531 5.015625 -0.34375 4.046875 -0.34375 C 3.378906 -0.34375 2.769531 -0.488281 2.21875 -0.78125 C 1.664062 -1.070312 1.226562 -1.484375 0.90625 -2.015625 C 0.582031 -2.546875 0.421875 -3.15625 0.421875 -3.84375 C 0.421875 -4.53125 0.582031 -5.132812 0.90625 -5.65625 C 1.226562 -6.1875 1.664062 -6.597656 2.21875 -6.890625 C 2.769531 -7.179688 3.378906 -7.328125 4.046875 -7.328125 C 5.085938 -7.328125 5.878906 -6.984375 6.421875 -6.296875 L 6.421875 -7.21875 Z M 4.453125 -2.0625 C 5.003906 -2.0625 5.457031 -2.222656 5.8125 -2.546875 C 6.164062 -2.878906 6.34375 -3.3125 6.34375 -3.84375 C 6.34375 -4.363281 6.164062 -4.785156 5.8125 -5.109375 C 5.457031 -5.441406 5.003906 -5.609375 4.453125 -5.609375 C 3.898438 -5.609375 3.441406 -5.441406 3.078125 -5.109375 C 2.722656 -4.785156 2.546875 -4.363281 2.546875 -3.84375 C 2.546875 -3.3125 2.722656 -2.878906 3.078125 -2.546875 C 3.441406 -2.222656 3.898438 -2.0625 4.453125 -2.0625 Z M 4.453125 -2.0625 "/></g></g></g></g><g transform="matrix(1, 0, 0, 1, 32, 0.000000000000005692)"><g clip-path="url(#a20cee60e6)"><g clip-path="url(#212d72d1ae)"><g fill="#ff6825" fill-opacity="0.4"><g transform="translate(0.164222, 12.794676)"><g><path d="M 8.734375 -1.78125 L 8.734375 0 L 0.515625 0 L 0.515625 -1.40625 L 5.671875 -7.625 L 0.625 -7.625 L 0.625 -9.40625 L 8.53125 -9.40625 L 8.53125 -8 L 3.390625 -1.78125 Z M 8.734375 -1.78125 "/></g></g></g></g><g fill="#ff6825" fill-opacity="0.4"><g transform="translate(8.385474, 12.794676)"><g><path d="M 0.96875 -7.234375 L 3.0625 -7.234375 L 3.0625 0 L 0.96875 0 Z M 2.015625 -8.234375 C 1.628906 -8.234375 1.316406 -8.34375 1.078125 -8.5625 C 0.835938 -8.789062 0.71875 -9.070312 0.71875 -9.40625 C 0.71875 -9.738281 0.835938 -10.015625 1.078125 -10.234375 C 1.316406 -10.460938 1.628906 -10.578125 2.015625 -10.578125 C 2.398438 -10.578125 2.710938 -10.46875 2.953125 -10.25 C 3.191406 -10.039062 3.3125 -9.773438 3.3125 -9.453125 C 3.3125 -9.097656 3.191406 -8.804688 2.953125 -8.578125 C 2.710938 -8.347656 2.398438 -8.234375 2.015625 -8.234375 Z M 2.015625 -8.234375 "/></g></g></g><g fill="#ff6825" fill-opacity="0.4"><g transform="translate(11.636331, 12.794676)"><g><path d="M 10.21875 -7.34375 C 11.125 -7.34375 11.84375 -7.070312 12.375 -6.53125 C 12.914062 -6 13.1875 -5.203125 13.1875 -4.140625 L 13.1875 0 L 11.09375 0 L 11.09375 -3.8125 C 11.09375 -4.382812 10.972656 -4.8125 10.734375 -5.09375 C 10.492188 -5.375 10.15625 -5.515625 9.71875 -5.515625 C 9.21875 -5.515625 8.820312 -5.351562 8.53125 -5.03125 C 8.25 -4.71875 8.109375 -4.25 8.109375 -3.625 L 8.109375 0 L 6.015625 0 L 6.015625 -3.8125 C 6.015625 -4.945312 5.5625 -5.515625 4.65625 -5.515625 C 4.164062 -5.515625 3.773438 -5.351562 3.484375 -5.03125 C 3.203125 -4.71875 3.0625 -4.25 3.0625 -3.625 L 3.0625 0 L 0.96875 0 L 0.96875 -7.234375 L 2.96875 -7.234375 L 2.96875 -6.390625 C 3.238281 -6.703125 3.566406 -6.9375 3.953125 -7.09375 C 4.347656 -7.257812 4.773438 -7.34375 5.234375 -7.34375 C 5.742188 -7.34375 6.207031 -7.238281 6.625 -7.03125 C 7.039062 -6.832031 7.375 -6.539062 7.625 -6.15625 C 7.914062 -6.53125 8.285156 -6.820312 8.734375 -7.03125 C 9.191406 -7.238281 9.6875 -7.34375 10.21875 -7.34375 Z M 10.21875 -7.34375 "/></g></g></g><g clip-path="url(#919b24a709)"><g fill="#ff6825" fill-opacity="0.4"><g transform="translate(24.935446, 12.794676)"><g><path d="M 3.890625 -7.34375 C 5.003906 -7.34375 5.859375 -7.070312 6.453125 -6.53125 C 7.054688 -6 7.359375 -5.195312 7.359375 -4.125 L 7.359375 0 L 5.40625 0 L 5.40625 -0.90625 C 5.007812 -0.226562 4.273438 0.109375 3.203125 0.109375 C 2.640625 0.109375 2.15625 0.015625 1.75 -0.171875 C 1.34375 -0.359375 1.03125 -0.617188 0.8125 -0.953125 C 0.601562 -1.285156 0.5 -1.660156 0.5 -2.078125 C 0.5 -2.753906 0.75 -3.285156 1.25 -3.671875 C 1.757812 -4.054688 2.539062 -4.25 3.59375 -4.25 L 5.265625 -4.25 C 5.265625 -4.707031 5.125 -5.054688 4.84375 -5.296875 C 4.570312 -5.546875 4.15625 -5.671875 3.59375 -5.671875 C 3.21875 -5.671875 2.84375 -5.609375 2.46875 -5.484375 C 2.09375 -5.367188 1.773438 -5.207031 1.515625 -5 L 0.765625 -6.46875 C 1.160156 -6.738281 1.632812 -6.953125 2.1875 -7.109375 C 2.738281 -7.265625 3.304688 -7.34375 3.890625 -7.34375 Z M 3.71875 -1.296875 C 4.082031 -1.296875 4.398438 -1.378906 4.671875 -1.546875 C 4.953125 -1.710938 5.148438 -1.957031 5.265625 -2.28125 L 5.265625 -3.03125 L 3.828125 -3.03125 C 2.972656 -3.03125 2.546875 -2.742188 2.546875 -2.171875 C 2.546875 -1.910156 2.648438 -1.695312 2.859375 -1.53125 C 3.066406 -1.375 3.351562 -1.296875 3.71875 -1.296875 Z M 3.71875 -1.296875 "/></g></g></g></g><g clip-path="url(#c6574ec5f4)"><g fill="#d50c2d" fill-opacity="1"><g transform="translate(0.164222, 12.794676)"><g><path d="M 8.734375 -1.78125 L 8.734375 0 L 0.515625 0 L 0.515625 -1.40625 L 5.671875 -7.625 L 0.625 -7.625 L 0.625 -9.40625 L 8.53125 -9.40625 L 8.53125 -8 L 3.390625 -1.78125 Z M 8.734375 -1.78125 "/></g></g></g></g><g fill="#d50c2d" fill-opacity="1"><g transform="translate(8.385474, 12.794676)"><g><path d="M 0.96875 -7.234375 L 3.0625 -7.234375 L 3.0625 0 L 0.96875 0 Z M 2.015625 -8.234375 C 1.628906 -8.234375 1.316406 -8.34375 1.078125 -8.5625 C 0.835938 -8.789062 0.71875 -9.070312 0.71875 -9.40625 C 0.71875 -9.738281 0.835938 -10.015625 1.078125 -10.234375 C 1.316406 -10.460938 1.628906 -10.578125 2.015625 -10.578125 C 2.398438 -10.578125 2.710938 -10.46875 2.953125 -10.25 C 3.191406 -10.039062 3.3125 -9.773438 3.3125 -9.453125 C 3.3125 -9.097656 3.191406 -8.804688 2.953125 -8.578125 C 2.710938 -8.347656 2.398438 -8.234375 2.015625 -8.234375 Z M 2.015625 -8.234375 "/></g></g></g><g fill="#d50c2d" fill-opacity="1"><g transform="translate(11.636331, 12.794676)"><g><path d="M 10.21875 -7.34375 C 11.125 -7.34375 11.84375 -7.070312 12.375 -6.53125 C 12.914062 -6 13.1875 -5.203125 13.1875 -4.140625 L 13.1875 0 L 11.09375 0 L 11.09375 -3.8125 C 11.09375 -4.382812 10.972656 -4.8125 10.734375 -5.09375 C 10.492188 -5.375 10.15625 -5.515625 9.71875 -5.515625 C 9.21875 -5.515625 8.820312 -5.351562 8.53125 -5.03125 C 8.25 -4.71875 8.109375 -4.25 8.109375 -3.625 L 8.109375 0 L 6.015625 0 L 6.015625 -3.8125 C 6.015625 -4.945312 5.5625 -5.515625 4.65625 -5.515625 C 4.164062 -5.515625 3.773438 -5.351562 3.484375 -5.03125 C 3.203125 -4.71875 3.0625 -4.25 3.0625 -3.625 L 3.0625 0 L 0.96875 0 L 0.96875 -7.234375 L 2.96875 -7.234375 L 2.96875 -6.390625 C 3.238281 -6.703125 3.566406 -6.9375 3.953125 -7.09375 C 4.347656 -7.257812 4.773438 -7.34375 5.234375 -7.34375 C 5.742188 -7.34375 6.207031 -7.238281 6.625 -7.03125 C 7.039062 -6.832031 7.375 -6.539062 7.625 -6.15625 C 7.914062 -6.53125 8.285156 -6.820312 8.734375 -7.03125 C 9.191406 -7.238281 9.6875 -7.34375 10.21875 -7.34375 Z M 10.21875 -7.34375 "/></g></g></g><g clip-path="url(#109222244e)"><g fill="#d50c2d" fill-opacity="1"><g transform="translate(24.935446, 12.794676)"><g><path d="M 3.890625 -7.34375 C 5.003906 -7.34375 5.859375 -7.070312 6.453125 -6.53125 C 7.054688 -6 7.359375 -5.195312 7.359375 -4.125 L 7.359375 0 L 5.40625 0 L 5.40625 -0.90625 C 5.007812 -0.226562 4.273438 0.109375 3.203125 0.109375 C 2.640625 0.109375 2.15625 0.015625 1.75 -0.171875 C 1.34375 -0.359375 1.03125 -0.617188 0.8125 -0.953125 C 0.601562 -1.285156 0.5 -1.660156 0.5 -2.078125 C 0.5 -2.753906 0.75 -3.285156 1.25 -3.671875 C 1.757812 -4.054688 2.539062 -4.25 3.59375 -4.25 L 5.265625 -4.25 C 5.265625 -4.707031 5.125 -5.054688 4.84375 -5.296875 C 4.570312 -5.546875 4.15625 -5.671875 3.59375 -5.671875 C 3.21875 -5.671875 2.84375 -5.609375 2.46875 -5.484375 C 2.09375 -5.367188 1.773438 -5.207031 1.515625 -5 L 0.765625 -6.46875 C 1.160156 -6.738281 1.632812 -6.953125 2.1875 -7.109375 C 2.738281 -7.265625 3.304688 -7.34375 3.890625 -7.34375 Z M 3.71875 -1.296875 C 4.082031 -1.296875 4.398438 -1.378906 4.671875 -1.546875 C 4.953125 -1.710938 5.148438 -1.957031 5.265625 -2.28125 L 5.265625 -3.03125 L 3.828125 -3.03125 C 2.972656 -3.03125 2.546875 -2.742188 2.546875 -2.171875 C 2.546875 -1.910156 2.648438 -1.695312 2.859375 -1.53125 C 3.066406 -1.375 3.351562 -1.296875 3.71875 -1.296875 Z M 3.71875 -1.296875 "/></g></g></g></g></g></g></svg>