<svg xmlns="http://www.w3.org/2000/svg" xmlns:xlink="http://www.w3.org/1999/xlink" width="180" zoomAndPan="magnify" viewBox="0 0 135 44.999999" height="60" preserveAspectRatio="xMidYMid meet" version="1.0"><defs><g/><clipPath id="5f65b87ec6"><path d="M 9 4.136719 L 26 4.136719 L 26 12 L 9 12 Z M 9 4.136719 " clip-rule="nonzero"/></clipPath><clipPath id="fceabfc924"><path d="M 4 13 L 33.9375 13 L 33.9375 40.886719 L 4 40.886719 Z M 4 13 " clip-rule="nonzero"/></clipPath><clipPath id="b9d3dadd79"><path d="M 0.9375 15 L 6 15 L 6 40 L 0.9375 40 Z M 0.9375 15 " clip-rule="nonzero"/></clipPath><clipPath id="3d14dad116"><path d="M 9 4.136719 L 26 4.136719 L 26 12 L 9 12 Z M 9 4.136719 " clip-rule="nonzero"/></clipPath><clipPath id="993337410e"><rect x="0" width="97" y="0" height="23"/></clipPath><clipPath id="e15e11cf06"><path d="M 36 8 L 46.71875 8 L 46.71875 20 L 36 20 Z M 36 8 " clip-rule="nonzero"/></clipPath><clipPath id="5c2b1f3235"><path d="M 36 8 L 46.71875 8 L 46.71875 20 L 36 20 Z M 36 8 " clip-rule="nonzero"/></clipPath><clipPath id="79736a61c3"><rect x="0" width="47" y="0" height="25"/></clipPath></defs><g clip-path="url(#5f65b87ec6)"><path fill="#d50c2d" d="M 25.132812 11.9375 L 23.453125 11.9375 C 23.441406 8.617188 20.746094 5.929688 17.421875 5.929688 C 14.101562 5.929688 11.40625 8.613281 11.390625 11.929688 L 9.726562 11.929688 C 9.722656 11.800781 9.71875 11.671875 9.722656 11.546875 C 9.9375 7.480469 13.304688 4.25 17.421875 4.25 C 21.546875 4.25 24.917969 7.488281 25.121094 11.5625 C 25.125 11.601562 25.125 11.640625 25.128906 11.679688 C 25.128906 11.746094 25.128906 11.816406 25.132812 11.886719 C 25.132812 11.902344 25.132812 11.921875 25.132812 11.9375 Z M 25.132812 11.9375 " fill-opacity="1" fill-rule="evenodd"/></g><g clip-path="url(#fceabfc924)"><path fill="#d50c2d" d="M 33.726562 36.433594 C 33.5 34.273438 33.289062 32.117188 33.070312 29.957031 C 32.957031 28.835938 32.839844 27.710938 32.722656 26.589844 C 32.621094 25.632812 32.523438 24.679688 32.425781 23.722656 C 32.226562 21.8125 32.039062 19.90625 31.839844 17.996094 C 31.75 17.128906 31.65625 16.261719 31.554688 15.367188 L 29.429688 15.367188 C 29.347656 14.632812 29.273438 13.925781 29.191406 13.199219 L 6.410156 13.199219 C 5.789062 22.398438 5.164062 31.585938 4.542969 40.78125 L 30.285156 40.78125 L 29.78125 28.066406 L 30.433594 28.066406 C 30.769531 31.867188 31.101562 35.644531 31.445312 39.503906 C 32.1875 38.617188 32.867188 37.796875 33.566406 36.988281 C 33.714844 36.8125 33.75 36.652344 33.726562 36.433594 Z M 6.761719 39.382812 L 7.398438 22.820312 L 8.921875 37.480469 L 21.222656 39.382812 Z M 6.761719 39.382812 " fill-opacity="1" fill-rule="evenodd"/></g><g clip-path="url(#b9d3dadd79)"><path fill="#3c3c3b" d="M 5.042969 15.367188 C 4.484375 23.433594 3.929688 31.460938 3.367188 39.589844 C 2.996094 39.167969 2.695312 38.832031 2.398438 38.488281 C 2.132812 38.179688 1.878906 37.859375 1.613281 37.546875 C 0.914062 36.726562 0.925781 36.730469 1.035156 35.667969 C 1.289062 33.203125 1.527344 30.742188 1.773438 28.277344 C 2.058594 25.371094 2.347656 22.46875 2.632812 19.566406 C 2.757812 18.277344 2.882812 16.988281 2.992188 15.699219 C 3.015625 15.4375 3.09375 15.351562 3.359375 15.363281 C 3.902344 15.382812 4.445312 15.367188 5.042969 15.367188 Z M 5.042969 15.367188 " fill-opacity="1" fill-rule="evenodd"/></g><g clip-path="url(#3d14dad116)"><path fill="#d50c2d" d="M 25.132812 11.886719 C 25.132812 11.816406 25.128906 11.746094 25.128906 11.679688 C 25.128906 11.640625 25.125 11.601562 25.125 11.5625 C 24.917969 7.488281 21.546875 4.25 17.421875 4.25 C 13.304688 4.25 9.9375 7.480469 9.722656 11.546875 C 9.714844 11.683594 9.710938 11.820312 9.710938 11.960938 L 11.390625 11.960938 L 11.390625 11.925781 C 11.410156 8.613281 14.101562 5.929688 17.421875 5.929688 C 20.746094 5.929688 23.441406 8.617188 23.453125 11.941406 L 23.453125 11.960938 L 25.132812 11.960938 L 25.132812 11.941406 C 25.132812 11.921875 25.132812 11.902344 25.132812 11.886719 Z M 25.132812 11.886719 " fill-opacity="1" fill-rule="evenodd"/></g><g transform="matrix(1, 0, 0, 1, 38, 22)"><g clip-path="url(#993337410e)"><g fill="#3c3c3b" fill-opacity="1"><g transform="translate(0.748192, 18.754436)"><g><path d="M 7.3125 -13.25 C 8.488281 -13.25 9.507812 -13.050781 10.375 -12.65625 C 11.238281 -12.269531 11.898438 -11.71875 12.359375 -11 C 12.828125 -10.28125 13.0625 -9.429688 13.0625 -8.453125 C 13.0625 -7.472656 12.828125 -6.617188 12.359375 -5.890625 C 11.898438 -5.171875 11.238281 -4.617188 10.375 -4.234375 C 9.507812 -3.847656 8.488281 -3.65625 7.3125 -3.65625 L 4.640625 -3.65625 L 4.640625 0 L 1.578125 0 L 1.578125 -13.25 Z M 7.140625 -6.15625 C 8.054688 -6.15625 8.753906 -6.351562 9.234375 -6.75 C 9.722656 -7.144531 9.96875 -7.710938 9.96875 -8.453125 C 9.96875 -9.191406 9.722656 -9.757812 9.234375 -10.15625 C 8.753906 -10.550781 8.054688 -10.75 7.140625 -10.75 L 4.640625 -10.75 L 4.640625 -6.15625 Z M 7.140625 -6.15625 "/></g></g></g><g fill="#3c3c3b" fill-opacity="1"><g transform="translate(13.487808, 18.754436)"><g><path d="M 5.46875 -10.34375 C 7.050781 -10.34375 8.265625 -9.96875 9.109375 -9.21875 C 9.953125 -8.46875 10.375 -7.332031 10.375 -5.8125 L 10.375 0 L 7.609375 0 L 7.609375 -1.265625 C 7.054688 -0.316406 6.019531 0.15625 4.5 0.15625 C 3.71875 0.15625 3.039062 0.0234375 2.46875 -0.234375 C 1.894531 -0.503906 1.457031 -0.875 1.15625 -1.34375 C 0.851562 -1.8125 0.703125 -2.34375 0.703125 -2.9375 C 0.703125 -3.882812 1.054688 -4.628906 1.765625 -5.171875 C 2.484375 -5.710938 3.585938 -5.984375 5.078125 -5.984375 L 7.421875 -5.984375 C 7.421875 -6.628906 7.222656 -7.125 6.828125 -7.46875 C 6.441406 -7.8125 5.859375 -7.984375 5.078125 -7.984375 C 4.535156 -7.984375 4 -7.898438 3.46875 -7.734375 C 2.945312 -7.566406 2.503906 -7.335938 2.140625 -7.046875 L 1.078125 -9.109375 C 1.628906 -9.503906 2.289062 -9.804688 3.0625 -10.015625 C 3.84375 -10.234375 4.644531 -10.34375 5.46875 -10.34375 Z M 5.25 -1.84375 C 5.75 -1.84375 6.191406 -1.957031 6.578125 -2.1875 C 6.972656 -2.414062 7.253906 -2.757812 7.421875 -3.21875 L 7.421875 -4.265625 L 5.390625 -4.265625 C 4.179688 -4.265625 3.578125 -3.863281 3.578125 -3.0625 C 3.578125 -2.6875 3.722656 -2.390625 4.015625 -2.171875 C 4.316406 -1.953125 4.726562 -1.84375 5.25 -1.84375 Z M 5.25 -1.84375 "/></g></g></g><g fill="#3c3c3b" fill-opacity="1"><g transform="translate(24.050417, 18.754436)"><g><path d="M 6.28125 0.15625 C 5.195312 0.15625 4.222656 -0.0664062 3.359375 -0.515625 C 2.492188 -0.960938 1.816406 -1.582031 1.328125 -2.375 C 0.847656 -3.175781 0.609375 -4.082031 0.609375 -5.09375 C 0.609375 -6.101562 0.847656 -7.003906 1.328125 -7.796875 C 1.816406 -8.597656 2.492188 -9.222656 3.359375 -9.671875 C 4.222656 -10.117188 5.195312 -10.34375 6.28125 -10.34375 C 7.351562 -10.34375 8.289062 -10.117188 9.09375 -9.671875 C 9.894531 -9.222656 10.476562 -8.582031 10.84375 -7.75 L 8.5625 -6.515625 C 8.03125 -7.453125 7.265625 -7.921875 6.265625 -7.921875 C 5.492188 -7.921875 4.851562 -7.664062 4.34375 -7.15625 C 3.84375 -6.65625 3.59375 -5.96875 3.59375 -5.09375 C 3.59375 -4.21875 3.84375 -3.523438 4.34375 -3.015625 C 4.851562 -2.515625 5.492188 -2.265625 6.265625 -2.265625 C 7.273438 -2.265625 8.039062 -2.734375 8.5625 -3.671875 L 10.84375 -2.421875 C 10.476562 -1.617188 9.894531 -0.988281 9.09375 -0.53125 C 8.289062 -0.0703125 7.351562 0.15625 6.28125 0.15625 Z M 6.28125 0.15625 "/></g></g></g><g fill="#3c3c3b" fill-opacity="1"><g transform="translate(34.120834, 18.754436)"><g><path d="M 5.734375 -4 L 4.3125 -2.59375 L 4.3125 0 L 1.359375 0 L 1.359375 -14.046875 L 4.3125 -14.046875 L 4.3125 -6.09375 L 8.640625 -10.1875 L 12.15625 -10.1875 L 7.921875 -5.875 L 12.53125 0 L 8.953125 0 Z M 5.734375 -4 "/></g></g></g><g fill="#3c3c3b" fill-opacity="1"><g transform="translate(45.497449, 18.754436)"><g><path d="M 5.46875 -10.34375 C 7.050781 -10.34375 8.265625 -9.96875 9.109375 -9.21875 C 9.953125 -8.46875 10.375 -7.332031 10.375 -5.8125 L 10.375 0 L 7.609375 0 L 7.609375 -1.265625 C 7.054688 -0.316406 6.019531 0.15625 4.5 0.15625 C 3.71875 0.15625 3.039062 0.0234375 2.46875 -0.234375 C 1.894531 -0.503906 1.457031 -0.875 1.15625 -1.34375 C 0.851562 -1.8125 0.703125 -2.34375 0.703125 -2.9375 C 0.703125 -3.882812 1.054688 -4.628906 1.765625 -5.171875 C 2.484375 -5.710938 3.585938 -5.984375 5.078125 -5.984375 L 7.421875 -5.984375 C 7.421875 -6.628906 7.222656 -7.125 6.828125 -7.46875 C 6.441406 -7.8125 5.859375 -7.984375 5.078125 -7.984375 C 4.535156 -7.984375 4 -7.898438 3.46875 -7.734375 C 2.945312 -7.566406 2.503906 -7.335938 2.140625 -7.046875 L 1.078125 -9.109375 C 1.628906 -9.503906 2.289062 -9.804688 3.0625 -10.015625 C 3.84375 -10.234375 4.644531 -10.34375 5.46875 -10.34375 Z M 5.25 -1.84375 C 5.75 -1.84375 6.191406 -1.957031 6.578125 -2.1875 C 6.972656 -2.414062 7.253906 -2.757812 7.421875 -3.21875 L 7.421875 -4.265625 L 5.390625 -4.265625 C 4.179688 -4.265625 3.578125 -3.863281 3.578125 -3.0625 C 3.578125 -2.6875 3.722656 -2.390625 4.015625 -2.171875 C 4.316406 -1.953125 4.726562 -1.84375 5.25 -1.84375 Z M 5.25 -1.84375 "/></g></g></g><g fill="#3c3c3b" fill-opacity="1"><g transform="translate(56.060058, 18.754436)"><g><path d="M 11.875 -10.1875 L 11.875 -1.703125 C 11.875 0.160156 11.382812 1.546875 10.40625 2.453125 C 9.4375 3.367188 8.019531 3.828125 6.15625 3.828125 C 5.164062 3.828125 4.226562 3.707031 3.34375 3.46875 C 2.46875 3.226562 1.738281 2.878906 1.15625 2.421875 L 2.328125 0.296875 C 2.753906 0.648438 3.296875 0.929688 3.953125 1.140625 C 4.609375 1.347656 5.265625 1.453125 5.921875 1.453125 C 6.953125 1.453125 7.707031 1.222656 8.1875 0.765625 C 8.675781 0.304688 8.921875 -0.390625 8.921875 -1.328125 L 8.921875 -1.765625 C 8.148438 -0.921875 7.078125 -0.5 5.703125 -0.5 C 4.765625 -0.5 3.90625 -0.703125 3.125 -1.109375 C 2.351562 -1.515625 1.738281 -2.085938 1.28125 -2.828125 C 0.832031 -3.578125 0.609375 -4.441406 0.609375 -5.421875 C 0.609375 -6.390625 0.832031 -7.242188 1.28125 -7.984375 C 1.738281 -8.734375 2.351562 -9.3125 3.125 -9.71875 C 3.90625 -10.132812 4.765625 -10.34375 5.703125 -10.34375 C 7.179688 -10.34375 8.304688 -9.851562 9.078125 -8.875 L 9.078125 -10.1875 Z M 6.28125 -2.921875 C 7.070312 -2.921875 7.710938 -3.148438 8.203125 -3.609375 C 8.703125 -4.066406 8.953125 -4.671875 8.953125 -5.421875 C 8.953125 -6.160156 8.703125 -6.757812 8.203125 -7.21875 C 7.710938 -7.6875 7.070312 -7.921875 6.28125 -7.921875 C 5.5 -7.921875 4.851562 -7.6875 4.34375 -7.21875 C 3.84375 -6.757812 3.59375 -6.160156 3.59375 -5.421875 C 3.59375 -4.671875 3.84375 -4.066406 4.34375 -3.609375 C 4.851562 -3.148438 5.5 -2.921875 6.28125 -2.921875 Z M 6.28125 -2.921875 "/></g></g></g><g fill="#3c3c3b" fill-opacity="1"><g transform="translate(68.193891, 18.754436)"><g><path d="M 1.359375 -10.1875 L 4.3125 -10.1875 L 4.3125 0 L 1.359375 0 Z M 2.828125 -11.609375 C 2.285156 -11.609375 1.84375 -11.765625 1.5 -12.078125 C 1.164062 -12.398438 1 -12.789062 1 -13.25 C 1 -13.71875 1.164062 -14.109375 1.5 -14.421875 C 1.84375 -14.742188 2.285156 -14.90625 2.828125 -14.90625 C 3.378906 -14.90625 3.820312 -14.753906 4.15625 -14.453125 C 4.5 -14.148438 4.671875 -13.769531 4.671875 -13.3125 C 4.671875 -12.820312 4.5 -12.414062 4.15625 -12.09375 C 3.820312 -11.769531 3.378906 -11.609375 2.828125 -11.609375 Z M 2.828125 -11.609375 "/></g></g></g><g fill="#3c3c3b" fill-opacity="1"><g transform="translate(72.774491, 18.754436)"><g><path d="M 7.5625 -10.34375 C 8.820312 -10.34375 9.835938 -9.960938 10.609375 -9.203125 C 11.390625 -8.441406 11.78125 -7.316406 11.78125 -5.828125 L 11.78125 0 L 8.828125 0 L 8.828125 -5.375 C 8.828125 -6.1875 8.648438 -6.789062 8.296875 -7.1875 C 7.941406 -7.582031 7.429688 -7.78125 6.765625 -7.78125 C 6.015625 -7.78125 5.414062 -7.550781 4.96875 -7.09375 C 4.53125 -6.632812 4.3125 -5.945312 4.3125 -5.03125 L 4.3125 0 L 1.359375 0 L 1.359375 -10.1875 L 4.1875 -10.1875 L 4.1875 -9 C 4.570312 -9.425781 5.054688 -9.753906 5.640625 -9.984375 C 6.222656 -10.222656 6.863281 -10.34375 7.5625 -10.34375 Z M 7.5625 -10.34375 "/></g></g></g><g fill="#3c3c3b" fill-opacity="1"><g transform="translate(84.737963, 18.754436)"><g><path d="M 11.875 -10.1875 L 11.875 -1.703125 C 11.875 0.160156 11.382812 1.546875 10.40625 2.453125 C 9.4375 3.367188 8.019531 3.828125 6.15625 3.828125 C 5.164062 3.828125 4.226562 3.707031 3.34375 3.46875 C 2.46875 3.226562 1.738281 2.878906 1.15625 2.421875 L 2.328125 0.296875 C 2.753906 0.648438 3.296875 0.929688 3.953125 1.140625 C 4.609375 1.347656 5.265625 1.453125 5.921875 1.453125 C 6.953125 1.453125 7.707031 1.222656 8.1875 0.765625 C 8.675781 0.304688 8.921875 -0.390625 8.921875 -1.328125 L 8.921875 -1.765625 C 8.148438 -0.921875 7.078125 -0.5 5.703125 -0.5 C 4.765625 -0.5 3.90625 -0.703125 3.125 -1.109375 C 2.351562 -1.515625 1.738281 -2.085938 1.28125 -2.828125 C 0.832031 -3.578125 0.609375 -4.441406 0.609375 -5.421875 C 0.609375 -6.390625 0.832031 -7.242188 1.28125 -7.984375 C 1.738281 -8.734375 2.351562 -9.3125 3.125 -9.71875 C 3.90625 -10.132812 4.765625 -10.34375 5.703125 -10.34375 C 7.179688 -10.34375 8.304688 -9.851562 9.078125 -8.875 L 9.078125 -10.1875 Z M 6.28125 -2.921875 C 7.070312 -2.921875 7.710938 -3.148438 8.203125 -3.609375 C 8.703125 -4.066406 8.953125 -4.671875 8.953125 -5.421875 C 8.953125 -6.160156 8.703125 -6.757812 8.203125 -7.21875 C 7.710938 -7.6875 7.070312 -7.921875 6.28125 -7.921875 C 5.5 -7.921875 4.851562 -7.6875 4.34375 -7.21875 C 3.84375 -6.757812 3.59375 -6.160156 3.59375 -5.421875 C 3.59375 -4.671875 3.84375 -4.066406 4.34375 -3.609375 C 4.851562 -3.148438 5.5 -2.921875 6.28125 -2.921875 Z M 6.28125 -2.921875 "/></g></g></g></g></g><g transform="matrix(1, 0, 0, 1, 38, 2)"><g clip-path="url(#79736a61c3)"><g fill="#ff6825" fill-opacity="0.4"><g transform="translate(1.006384, 19.235411)"><g><path d="M 12.3125 -2.5 L 12.3125 0 L 0.71875 0 L 0.71875 -1.984375 L 7.984375 -10.75 L 0.875 -10.75 L 0.875 -13.25 L 12.03125 -13.25 L 12.03125 -11.265625 L 4.765625 -2.5 Z M 12.3125 -2.5 "/></g></g></g><g fill="#ff6825" fill-opacity="0.4"><g transform="translate(12.596925, 19.235411)"><g><path d="M 1.359375 -10.1875 L 4.3125 -10.1875 L 4.3125 0 L 1.359375 0 Z M 2.828125 -11.609375 C 2.285156 -11.609375 1.84375 -11.765625 1.5 -12.078125 C 1.164062 -12.398438 1 -12.789062 1 -13.25 C 1 -13.71875 1.164062 -14.109375 1.5 -14.421875 C 1.84375 -14.742188 2.285156 -14.90625 2.828125 -14.90625 C 3.378906 -14.90625 3.820312 -14.753906 4.15625 -14.453125 C 4.5 -14.148438 4.671875 -13.769531 4.671875 -13.3125 C 4.671875 -12.820312 4.5 -12.414062 4.15625 -12.09375 C 3.820312 -11.769531 3.378906 -11.609375 2.828125 -11.609375 Z M 2.828125 -11.609375 "/></g></g></g><g fill="#ff6825" fill-opacity="0.4"><g transform="translate(17.18007, 19.235411)"><g><path d="M 14.40625 -10.34375 C 15.6875 -10.34375 16.703125 -9.96875 17.453125 -9.21875 C 18.203125 -8.46875 18.578125 -7.335938 18.578125 -5.828125 L 18.578125 0 L 15.625 0 L 15.625 -5.375 C 15.625 -6.1875 15.457031 -6.789062 15.125 -7.1875 C 14.789062 -7.582031 14.3125 -7.78125 13.6875 -7.78125 C 13 -7.78125 12.453125 -7.554688 12.046875 -7.109375 C 11.640625 -6.660156 11.4375 -5.992188 11.4375 -5.109375 L 11.4375 0 L 8.484375 0 L 8.484375 -5.375 C 8.484375 -6.976562 7.835938 -7.78125 6.546875 -7.78125 C 5.867188 -7.78125 5.328125 -7.554688 4.921875 -7.109375 C 4.515625 -6.660156 4.3125 -5.992188 4.3125 -5.109375 L 4.3125 0 L 1.359375 0 L 1.359375 -10.1875 L 4.1875 -10.1875 L 4.1875 -9.015625 C 4.5625 -9.441406 5.023438 -9.769531 5.578125 -10 C 6.128906 -10.226562 6.734375 -10.34375 7.390625 -10.34375 C 8.109375 -10.34375 8.753906 -10.195312 9.328125 -9.90625 C 9.910156 -9.625 10.378906 -9.210938 10.734375 -8.671875 C 11.148438 -9.203125 11.675781 -9.613281 12.3125 -9.90625 C 12.957031 -10.195312 13.65625 -10.34375 14.40625 -10.34375 Z M 14.40625 -10.34375 "/></g></g></g><g clip-path="url(#e15e11cf06)"><g fill="#ff6825" fill-opacity="0.4"><g transform="translate(35.929518, 19.235411)"><g><path d="M 5.46875 -10.34375 C 7.050781 -10.34375 8.265625 -9.96875 9.109375 -9.21875 C 9.953125 -8.46875 10.375 -7.332031 10.375 -5.8125 L 10.375 0 L 7.609375 0 L 7.609375 -1.265625 C 7.054688 -0.316406 6.019531 0.15625 4.5 0.15625 C 3.71875 0.15625 3.039062 0.0234375 2.46875 -0.234375 C 1.894531 -0.503906 1.457031 -0.875 1.15625 -1.34375 C 0.851562 -1.8125 0.703125 -2.34375 0.703125 -2.9375 C 0.703125 -3.882812 1.054688 -4.628906 1.765625 -5.171875 C 2.484375 -5.710938 3.585938 -5.984375 5.078125 -5.984375 L 7.421875 -5.984375 C 7.421875 -6.628906 7.222656 -7.125 6.828125 -7.46875 C 6.441406 -7.8125 5.859375 -7.984375 5.078125 -7.984375 C 4.535156 -7.984375 4 -7.898438 3.46875 -7.734375 C 2.945312 -7.566406 2.503906 -7.335938 2.140625 -7.046875 L 1.078125 -9.109375 C 1.628906 -9.503906 2.289062 -9.804688 3.0625 -10.015625 C 3.84375 -10.234375 4.644531 -10.34375 5.46875 -10.34375 Z M 5.25 -1.84375 C 5.75 -1.84375 6.191406 -1.957031 6.578125 -2.1875 C 6.972656 -2.414062 7.253906 -2.757812 7.421875 -3.21875 L 7.421875 -4.265625 L 5.390625 -4.265625 C 4.179688 -4.265625 3.578125 -3.863281 3.578125 -3.0625 C 3.578125 -2.6875 3.722656 -2.390625 4.015625 -2.171875 C 4.316406 -1.953125 4.726562 -1.84375 5.25 -1.84375 Z M 5.25 -1.84375 "/></g></g></g></g><g fill="#d50c2d" fill-opacity="1"><g transform="translate(1.006384, 19.235411)"><g><path d="M 12.3125 -2.5 L 12.3125 0 L 0.71875 0 L 0.71875 -1.984375 L 7.984375 -10.75 L 0.875 -10.75 L 0.875 -13.25 L 12.03125 -13.25 L 12.03125 -11.265625 L 4.765625 -2.5 Z M 12.3125 -2.5 "/></g></g></g><g fill="#d50c2d" fill-opacity="1"><g transform="translate(12.596925, 19.235411)"><g><path d="M 1.359375 -10.1875 L 4.3125 -10.1875 L 4.3125 0 L 1.359375 0 Z M 2.828125 -11.609375 C 2.285156 -11.609375 1.84375 -11.765625 1.5 -12.078125 C 1.164062 -12.398438 1 -12.789062 1 -13.25 C 1 -13.71875 1.164062 -14.109375 1.5 -14.421875 C 1.84375 -14.742188 2.285156 -14.90625 2.828125 -14.90625 C 3.378906 -14.90625 3.820312 -14.753906 4.15625 -14.453125 C 4.5 -14.148438 4.671875 -13.769531 4.671875 -13.3125 C 4.671875 -12.820312 4.5 -12.414062 4.15625 -12.09375 C 3.820312 -11.769531 3.378906 -11.609375 2.828125 -11.609375 Z M 2.828125 -11.609375 "/></g></g></g><g fill="#d50c2d" fill-opacity="1"><g transform="translate(17.18007, 19.235411)"><g><path d="M 14.40625 -10.34375 C 15.6875 -10.34375 16.703125 -9.96875 17.453125 -9.21875 C 18.203125 -8.46875 18.578125 -7.335938 18.578125 -5.828125 L 18.578125 0 L 15.625 0 L 15.625 -5.375 C 15.625 -6.1875 15.457031 -6.789062 15.125 -7.1875 C 14.789062 -7.582031 14.3125 -7.78125 13.6875 -7.78125 C 13 -7.78125 12.453125 -7.554688 12.046875 -7.109375 C 11.640625 -6.660156 11.4375 -5.992188 11.4375 -5.109375 L 11.4375 0 L 8.484375 0 L 8.484375 -5.375 C 8.484375 -6.976562 7.835938 -7.78125 6.546875 -7.78125 C 5.867188 -7.78125 5.328125 -7.554688 4.921875 -7.109375 C 4.515625 -6.660156 4.3125 -5.992188 4.3125 -5.109375 L 4.3125 0 L 1.359375 0 L 1.359375 -10.1875 L 4.1875 -10.1875 L 4.1875 -9.015625 C 4.5625 -9.441406 5.023438 -9.769531 5.578125 -10 C 6.128906 -10.226562 6.734375 -10.34375 7.390625 -10.34375 C 8.109375 -10.34375 8.753906 -10.195312 9.328125 -9.90625 C 9.910156 -9.625 10.378906 -9.210938 10.734375 -8.671875 C 11.148438 -9.203125 11.675781 -9.613281 12.3125 -9.90625 C 12.957031 -10.195312 13.65625 -10.34375 14.40625 -10.34375 Z M 14.40625 -10.34375 "/></g></g></g><g clip-path="url(#5c2b1f3235)"><g fill="#d50c2d" fill-opacity="1"><g transform="translate(35.929518, 19.235411)"><g><path d="M 5.46875 -10.34375 C 7.050781 -10.34375 8.265625 -9.96875 9.109375 -9.21875 C 9.953125 -8.46875 10.375 -7.332031 10.375 -5.8125 L 10.375 0 L 7.609375 0 L 7.609375 -1.265625 C 7.054688 -0.316406 6.019531 0.15625 4.5 0.15625 C 3.71875 0.15625 3.039062 0.0234375 2.46875 -0.234375 C 1.894531 -0.503906 1.457031 -0.875 1.15625 -1.34375 C 0.851562 -1.8125 0.703125 -2.34375 0.703125 -2.9375 C 0.703125 -3.882812 1.054688 -4.628906 1.765625 -5.171875 C 2.484375 -5.710938 3.585938 -5.984375 5.078125 -5.984375 L 7.421875 -5.984375 C 7.421875 -6.628906 7.222656 -7.125 6.828125 -7.46875 C 6.441406 -7.8125 5.859375 -7.984375 5.078125 -7.984375 C 4.535156 -7.984375 4 -7.898438 3.46875 -7.734375 C 2.945312 -7.566406 2.503906 -7.335938 2.140625 -7.046875 L 1.078125 -9.109375 C 1.628906 -9.503906 2.289062 -9.804688 3.0625 -10.015625 C 3.84375 -10.234375 4.644531 -10.34375 5.46875 -10.34375 Z M 5.25 -1.84375 C 5.75 -1.84375 6.191406 -1.957031 6.578125 -2.1875 C 6.972656 -2.414062 7.253906 -2.757812 7.421875 -3.21875 L 7.421875 -4.265625 L 5.390625 -4.265625 C 4.179688 -4.265625 3.578125 -3.863281 3.578125 -3.0625 C 3.578125 -2.6875 3.722656 -2.390625 4.015625 -2.171875 C 4.316406 -1.953125 4.726562 -1.84375 5.25 -1.84375 Z M 5.25 -1.84375 "/></g></g></g></g></g></g></svg>