<svg xmlns="http://www.w3.org/2000/svg" xmlns:xlink="http://www.w3.org/1999/xlink" width="120" zoomAndPan="magnify" viewBox="0 0 90 30.000001" height="40" preserveAspectRatio="xMidYMid meet" version="1.0"><defs><g/><clipPath id="ec1e0d6102"><path d="M 9 1.167969 L 21 1.167969 L 21 7 L 9 7 Z M 9 1.167969 " clip-rule="nonzero"/></clipPath><clipPath id="f9180c8e3f"><path d="M 3.046875 9 L 7 9 L 7 27 L 3.046875 27 Z M 3.046875 9 " clip-rule="nonzero"/></clipPath><clipPath id="a8d37f5942"><path d="M 9 1.167969 L 21 1.167969 L 21 7 L 9 7 Z M 9 1.167969 " clip-rule="nonzero"/></clipPath><clipPath id="2cb4b0a562"><path d="M 0.0195312 11 L 56.921875 11 L 56.921875 25.101562 L 0.0195312 25.101562 Z M 0.0195312 11 " clip-rule="nonzero"/></clipPath><clipPath id="b41fd698a3"><path d="M 49 5 L 56.921875 5 L 56.921875 14 L 49 14 Z M 49 5 " clip-rule="nonzero"/></clipPath><clipPath id="bc932b6361"><rect x="0" width="57" y="0" height="15"/></clipPath><clipPath id="ab85768491"><path d="M 0.0195312 0.714844 L 28 0.714844 L 28 15 L 0.0195312 15 Z M 0.0195312 0.714844 " clip-rule="nonzero"/></clipPath><clipPath id="a178a1c5c4"><path d="M 21 5 L 27.65625 5 L 27.65625 12 L 21 12 Z M 21 5 " clip-rule="nonzero"/></clipPath><clipPath id="9e30cc7ee8"><path d="M 21 5 L 27.65625 5 L 27.65625 12 L 21 12 Z M 21 5 " clip-rule="nonzero"/></clipPath><clipPath id="94cf62f7b7"><rect x="0" width="28" y="0" height="15"/></clipPath><clipPath id="97eebf34bc"><rect x="0" width="57" y="0" height="26"/></clipPath></defs><g clip-path="url(#ec1e0d6102)"><path fill="#d50c2d" d="M 20.628906 6.84375 L 19.410156 6.84375 C 19.402344 4.429688 17.441406 2.476562 15.027344 2.476562 C 12.613281 2.476562 10.65625 4.425781 10.644531 6.835938 L 9.433594 6.835938 C 9.429688 6.742188 9.429688 6.648438 9.429688 6.558594 C 9.589844 3.605469 12.035156 1.257812 15.027344 1.257812 C 18.023438 1.257812 20.472656 3.609375 20.621094 6.570312 C 20.625 6.597656 20.625 6.625 20.625 6.652344 C 20.625 6.703125 20.628906 6.753906 20.628906 6.804688 C 20.628906 6.816406 20.628906 6.832031 20.628906 6.84375 Z M 20.628906 6.84375 " fill-opacity="1" fill-rule="evenodd"/></g><path fill="#d50c2d" d="M 26.871094 24.640625 C 26.707031 23.074219 26.554688 21.503906 26.394531 19.933594 C 26.3125 19.121094 26.226562 18.304688 26.144531 17.488281 C 26.070312 16.792969 25.996094 16.101562 25.925781 15.40625 C 25.785156 14.019531 25.644531 12.632812 25.503906 11.242188 C 25.4375 10.613281 25.367188 9.984375 25.296875 9.335938 L 23.753906 9.335938 C 23.691406 8.800781 23.636719 8.289062 23.578125 7.761719 L 7.023438 7.761719 C 6.574219 14.445312 6.121094 21.117188 5.667969 27.800781 L 24.371094 27.800781 L 24.003906 18.5625 L 24.480469 18.5625 C 24.722656 21.324219 24.96875 24.066406 25.214844 26.871094 C 25.753906 26.226562 26.25 25.628906 26.753906 25.042969 C 26.863281 24.917969 26.890625 24.800781 26.871094 24.640625 Z M 7.28125 26.785156 L 7.742188 14.75 L 8.851562 25.402344 L 17.789062 26.785156 Z M 7.28125 26.785156 " fill-opacity="1" fill-rule="evenodd"/><g clip-path="url(#f9180c8e3f)"><path fill="#fafafa" d="M 6.035156 9.335938 C 5.628906 15.195312 5.222656 21.027344 4.816406 26.933594 C 4.546875 26.628906 4.324219 26.382812 4.113281 26.136719 C 3.917969 25.910156 3.734375 25.675781 3.539062 25.449219 C 3.035156 24.855469 3.042969 24.855469 3.121094 24.085938 C 3.304688 22.292969 3.480469 20.503906 3.65625 18.714844 C 3.863281 16.605469 4.074219 14.496094 4.28125 12.382812 C 4.371094 11.449219 4.464844 10.511719 4.542969 9.574219 C 4.558594 9.386719 4.617188 9.324219 4.808594 9.332031 C 5.203125 9.347656 5.597656 9.335938 6.035156 9.335938 Z M 6.035156 9.335938 " fill-opacity="1" fill-rule="evenodd"/></g><g clip-path="url(#a8d37f5942)"><path fill="#d50c2d" d="M 20.628906 6.804688 C 20.628906 6.753906 20.625 6.703125 20.625 6.652344 C 20.625 6.625 20.625 6.597656 20.621094 6.570312 C 20.472656 3.609375 18.023438 1.257812 15.027344 1.257812 C 12.035156 1.257812 9.589844 3.605469 9.429688 6.558594 C 9.425781 6.65625 9.421875 6.757812 9.421875 6.859375 L 10.644531 6.859375 L 10.644531 6.835938 C 10.65625 4.425781 12.613281 2.476562 15.027344 2.476562 C 17.441406 2.476562 19.402344 4.429688 19.410156 6.84375 L 19.410156 6.859375 L 20.628906 6.859375 L 20.628906 6.84375 C 20.628906 6.832031 20.628906 6.816406 20.628906 6.804688 Z M 20.628906 6.804688 " fill-opacity="1" fill-rule="evenodd"/></g><g transform="matrix(1, 0, 0, 1, 30, 3)"><g clip-path="url(#97eebf34bc)"><g clip-path="url(#2cb4b0a562)"><g transform="matrix(1, 0, 0, 1, 0, 11)"><g clip-path="url(#bc932b6361)"><g fill="#fafafa" fill-opacity="1"><g transform="translate(0.138803, 11.099187)"><g><path d="M 4.28125 -7.75 C 4.96875 -7.75 5.5625 -7.632812 6.0625 -7.40625 C 6.570312 -7.175781 6.960938 -6.851562 7.234375 -6.4375 C 7.503906 -6.019531 7.640625 -5.519531 7.640625 -4.9375 C 7.640625 -4.375 7.503906 -3.878906 7.234375 -3.453125 C 6.960938 -3.023438 6.570312 -2.695312 6.0625 -2.46875 C 5.5625 -2.25 4.96875 -2.140625 4.28125 -2.140625 L 2.71875 -2.140625 L 2.71875 0 L 0.921875 0 L 0.921875 -7.75 Z M 4.171875 -3.59375 C 4.710938 -3.59375 5.125 -3.707031 5.40625 -3.9375 C 5.6875 -4.175781 5.828125 -4.507812 5.828125 -4.9375 C 5.828125 -5.375 5.6875 -5.707031 5.40625 -5.9375 C 5.125 -6.175781 4.710938 -6.296875 4.171875 -6.296875 L 2.71875 -6.296875 L 2.71875 -3.59375 Z M 4.171875 -3.59375 "/></g></g></g><g fill="#fafafa" fill-opacity="1"><g transform="translate(7.59512, 11.099187)"><g><path d="M 3.203125 -6.046875 C 4.128906 -6.046875 4.835938 -5.828125 5.328125 -5.390625 C 5.828125 -4.953125 6.078125 -4.289062 6.078125 -3.40625 L 6.078125 0 L 4.453125 0 L 4.453125 -0.75 C 4.128906 -0.1875 3.523438 0.09375 2.640625 0.09375 C 2.179688 0.09375 1.78125 0.015625 1.4375 -0.140625 C 1.101562 -0.296875 0.847656 -0.507812 0.671875 -0.78125 C 0.492188 -1.0625 0.40625 -1.375 0.40625 -1.71875 C 0.40625 -2.269531 0.613281 -2.703125 1.03125 -3.015625 C 1.445312 -3.335938 2.09375 -3.5 2.96875 -3.5 L 4.34375 -3.5 C 4.34375 -3.875 4.226562 -4.160156 4 -4.359375 C 3.769531 -4.566406 3.425781 -4.671875 2.96875 -4.671875 C 2.65625 -4.671875 2.34375 -4.617188 2.03125 -4.515625 C 1.726562 -4.421875 1.46875 -4.289062 1.25 -4.125 L 0.625 -5.328125 C 0.957031 -5.554688 1.347656 -5.734375 1.796875 -5.859375 C 2.253906 -5.984375 2.722656 -6.046875 3.203125 -6.046875 Z M 3.0625 -1.078125 C 3.363281 -1.078125 3.628906 -1.144531 3.859375 -1.28125 C 4.085938 -1.414062 4.25 -1.617188 4.34375 -1.890625 L 4.34375 -2.5 L 3.15625 -2.5 C 2.445312 -2.5 2.09375 -2.265625 2.09375 -1.796875 C 2.09375 -1.578125 2.175781 -1.398438 2.34375 -1.265625 C 2.519531 -1.140625 2.757812 -1.078125 3.0625 -1.078125 Z M 3.0625 -1.078125 "/></g></g></g><g fill="#fafafa" fill-opacity="1"><g transform="translate(13.777245, 11.099187)"><g><path d="M 3.671875 0.09375 C 3.035156 0.09375 2.460938 -0.0351562 1.953125 -0.296875 C 1.453125 -0.566406 1.0625 -0.929688 0.78125 -1.390625 C 0.5 -1.859375 0.359375 -2.390625 0.359375 -2.984375 C 0.359375 -3.566406 0.5 -4.09375 0.78125 -4.5625 C 1.0625 -5.03125 1.453125 -5.394531 1.953125 -5.65625 C 2.460938 -5.914062 3.035156 -6.046875 3.671875 -6.046875 C 4.304688 -6.046875 4.859375 -5.914062 5.328125 -5.65625 C 5.796875 -5.394531 6.132812 -5.019531 6.34375 -4.53125 L 5 -3.8125 C 4.695312 -4.351562 4.253906 -4.625 3.671875 -4.625 C 3.210938 -4.625 2.835938 -4.476562 2.546875 -4.1875 C 2.253906 -3.894531 2.109375 -3.492188 2.109375 -2.984375 C 2.109375 -2.472656 2.253906 -2.066406 2.546875 -1.765625 C 2.835938 -1.472656 3.210938 -1.328125 3.671875 -1.328125 C 4.253906 -1.328125 4.695312 -1.601562 5 -2.15625 L 6.34375 -1.421875 C 6.132812 -0.941406 5.796875 -0.566406 5.328125 -0.296875 C 4.859375 -0.0351562 4.304688 0.09375 3.671875 0.09375 Z M 3.671875 0.09375 "/></g></g></g><g fill="#fafafa" fill-opacity="1"><g transform="translate(19.671288, 11.099187)"><g><path d="M 3.359375 -2.34375 L 2.53125 -1.515625 L 2.53125 0 L 0.796875 0 L 0.796875 -8.21875 L 2.53125 -8.21875 L 2.53125 -3.5625 L 5.046875 -5.953125 L 7.109375 -5.953125 L 4.625 -3.4375 L 7.328125 0 L 5.234375 0 Z M 3.359375 -2.34375 "/></g></g></g><g fill="#fafafa" fill-opacity="1"><g transform="translate(26.329845, 11.099187)"><g><path d="M 3.203125 -6.046875 C 4.128906 -6.046875 4.835938 -5.828125 5.328125 -5.390625 C 5.828125 -4.953125 6.078125 -4.289062 6.078125 -3.40625 L 6.078125 0 L 4.453125 0 L 4.453125 -0.75 C 4.128906 -0.1875 3.523438 0.09375 2.640625 0.09375 C 2.179688 0.09375 1.78125 0.015625 1.4375 -0.140625 C 1.101562 -0.296875 0.847656 -0.507812 0.671875 -0.78125 C 0.492188 -1.0625 0.40625 -1.375 0.40625 -1.71875 C 0.40625 -2.269531 0.613281 -2.703125 1.03125 -3.015625 C 1.445312 -3.335938 2.09375 -3.5 2.96875 -3.5 L 4.34375 -3.5 C 4.34375 -3.875 4.226562 -4.160156 4 -4.359375 C 3.769531 -4.566406 3.425781 -4.671875 2.96875 -4.671875 C 2.65625 -4.671875 2.34375 -4.617188 2.03125 -4.515625 C 1.726562 -4.421875 1.46875 -4.289062 1.25 -4.125 L 0.625 -5.328125 C 0.957031 -5.554688 1.347656 -5.734375 1.796875 -5.859375 C 2.253906 -5.984375 2.722656 -6.046875 3.203125 -6.046875 Z M 3.0625 -1.078125 C 3.363281 -1.078125 3.628906 -1.144531 3.859375 -1.28125 C 4.085938 -1.414062 4.25 -1.617188 4.34375 -1.890625 L 4.34375 -2.5 L 3.15625 -2.5 C 2.445312 -2.5 2.09375 -2.265625 2.09375 -1.796875 C 2.09375 -1.578125 2.175781 -1.398438 2.34375 -1.265625 C 2.519531 -1.140625 2.757812 -1.078125 3.0625 -1.078125 Z M 3.0625 -1.078125 "/></g></g></g><g fill="#fafafa" fill-opacity="1"><g transform="translate(32.51197, 11.099187)"><g><path d="M 6.953125 -5.953125 L 6.953125 -1 C 6.953125 0.09375 6.664062 0.90625 6.09375 1.4375 C 5.519531 1.96875 4.6875 2.234375 3.59375 2.234375 C 3.019531 2.234375 2.472656 2.160156 1.953125 2.015625 C 1.441406 1.878906 1.015625 1.679688 0.671875 1.421875 L 1.359375 0.171875 C 1.609375 0.378906 1.925781 0.546875 2.3125 0.671875 C 2.695312 0.796875 3.082031 0.859375 3.46875 0.859375 C 4.0625 0.859375 4.5 0.722656 4.78125 0.453125 C 5.070312 0.179688 5.21875 -0.226562 5.21875 -0.78125 L 5.21875 -1.03125 C 4.769531 -0.53125 4.140625 -0.28125 3.328125 -0.28125 C 2.785156 -0.28125 2.285156 -0.398438 1.828125 -0.640625 C 1.378906 -0.890625 1.019531 -1.226562 0.75 -1.65625 C 0.488281 -2.09375 0.359375 -2.597656 0.359375 -3.171875 C 0.359375 -3.734375 0.488281 -4.234375 0.75 -4.671875 C 1.019531 -5.109375 1.378906 -5.445312 1.828125 -5.6875 C 2.285156 -5.925781 2.785156 -6.046875 3.328125 -6.046875 C 4.191406 -6.046875 4.851562 -5.765625 5.3125 -5.203125 L 5.3125 -5.953125 Z M 3.671875 -1.703125 C 4.128906 -1.703125 4.503906 -1.835938 4.796875 -2.109375 C 5.085938 -2.378906 5.234375 -2.734375 5.234375 -3.171875 C 5.234375 -3.609375 5.085938 -3.957031 4.796875 -4.21875 C 4.503906 -4.488281 4.128906 -4.625 3.671875 -4.625 C 3.210938 -4.625 2.835938 -4.488281 2.546875 -4.21875 C 2.253906 -3.957031 2.109375 -3.609375 2.109375 -3.171875 C 2.109375 -2.734375 2.253906 -2.378906 2.546875 -2.109375 C 2.835938 -1.835938 3.210938 -1.703125 3.671875 -1.703125 Z M 3.671875 -1.703125 "/></g></g></g><g fill="#fafafa" fill-opacity="1"><g transform="translate(39.613723, 11.099187)"><g><path d="M 0.796875 -5.953125 L 2.53125 -5.953125 L 2.53125 0 L 0.796875 0 Z M 1.65625 -6.796875 C 1.34375 -6.796875 1.085938 -6.882812 0.890625 -7.0625 C 0.691406 -7.25 0.59375 -7.476562 0.59375 -7.75 C 0.59375 -8.03125 0.691406 -8.257812 0.890625 -8.4375 C 1.085938 -8.625 1.34375 -8.71875 1.65625 -8.71875 C 1.976562 -8.71875 2.238281 -8.628906 2.4375 -8.453125 C 2.632812 -8.273438 2.734375 -8.050781 2.734375 -7.78125 C 2.734375 -7.5 2.632812 -7.265625 2.4375 -7.078125 C 2.238281 -6.890625 1.976562 -6.796875 1.65625 -6.796875 Z M 1.65625 -6.796875 "/></g></g></g><g fill="#fafafa" fill-opacity="1"><g transform="translate(42.294576, 11.099187)"><g><path d="M 4.421875 -6.046875 C 5.160156 -6.046875 5.753906 -5.820312 6.203125 -5.375 C 6.660156 -4.9375 6.890625 -4.28125 6.890625 -3.40625 L 6.890625 0 L 5.15625 0 L 5.15625 -3.140625 C 5.15625 -3.617188 5.050781 -3.972656 4.84375 -4.203125 C 4.644531 -4.429688 4.347656 -4.546875 3.953125 -4.546875 C 3.515625 -4.546875 3.164062 -4.410156 2.90625 -4.140625 C 2.65625 -3.878906 2.53125 -3.484375 2.53125 -2.953125 L 2.53125 0 L 0.796875 0 L 0.796875 -5.953125 L 2.453125 -5.953125 L 2.453125 -5.265625 C 2.679688 -5.515625 2.960938 -5.707031 3.296875 -5.84375 C 3.640625 -5.976562 4.015625 -6.046875 4.421875 -6.046875 Z M 4.421875 -6.046875 "/></g></g></g><g clip-path="url(#b41fd698a3)"><g fill="#fafafa" fill-opacity="1"><g transform="translate(49.29661, 11.099187)"><g><path d="M 6.953125 -5.953125 L 6.953125 -1 C 6.953125 0.09375 6.664062 0.90625 6.09375 1.4375 C 5.519531 1.96875 4.6875 2.234375 3.59375 2.234375 C 3.019531 2.234375 2.472656 2.160156 1.953125 2.015625 C 1.441406 1.878906 1.015625 1.679688 0.671875 1.421875 L 1.359375 0.171875 C 1.609375 0.378906 1.925781 0.546875 2.3125 0.671875 C 2.695312 0.796875 3.082031 0.859375 3.46875 0.859375 C 4.0625 0.859375 4.5 0.722656 4.78125 0.453125 C 5.070312 0.179688 5.21875 -0.226562 5.21875 -0.78125 L 5.21875 -1.03125 C 4.769531 -0.53125 4.140625 -0.28125 3.328125 -0.28125 C 2.785156 -0.28125 2.285156 -0.398438 1.828125 -0.640625 C 1.378906 -0.890625 1.019531 -1.226562 0.75 -1.65625 C 0.488281 -2.09375 0.359375 -2.597656 0.359375 -3.171875 C 0.359375 -3.734375 0.488281 -4.234375 0.75 -4.671875 C 1.019531 -5.109375 1.378906 -5.445312 1.828125 -5.6875 C 2.285156 -5.925781 2.785156 -6.046875 3.328125 -6.046875 C 4.191406 -6.046875 4.851562 -5.765625 5.3125 -5.203125 L 5.3125 -5.953125 Z M 3.671875 -1.703125 C 4.128906 -1.703125 4.503906 -1.835938 4.796875 -2.109375 C 5.085938 -2.378906 5.234375 -2.734375 5.234375 -3.171875 C 5.234375 -3.609375 5.085938 -3.957031 4.796875 -4.21875 C 4.503906 -4.488281 4.128906 -4.625 3.671875 -4.625 C 3.210938 -4.625 2.835938 -4.488281 2.546875 -4.21875 C 2.253906 -3.957031 2.109375 -3.609375 2.109375 -3.171875 C 2.109375 -2.734375 2.253906 -2.378906 2.546875 -2.109375 C 2.835938 -1.835938 3.210938 -1.703125 3.671875 -1.703125 Z M 3.671875 -1.703125 "/></g></g></g></g></g></g></g><g clip-path="url(#ab85768491)"><g transform="matrix(1, 0, 0, 1, 0, 0.000000000000005773)"><g clip-path="url(#94cf62f7b7)"><g fill="#ff6825" fill-opacity="0.4"><g transform="translate(0.8073, 11.571165)"><g><path d="M 7.21875 -1.46875 L 7.21875 0 L 0.421875 0 L 0.421875 -1.171875 L 4.6875 -6.296875 L 0.515625 -6.296875 L 0.515625 -7.765625 L 7.046875 -7.765625 L 7.046875 -6.59375 L 2.796875 -1.46875 Z M 7.21875 -1.46875 "/></g></g></g><g fill="#ff6825" fill-opacity="0.4"><g transform="translate(7.592931, 11.571165)"><g><path d="M 0.796875 -5.96875 L 2.53125 -5.96875 L 2.53125 0 L 0.796875 0 Z M 1.671875 -6.796875 C 1.347656 -6.796875 1.085938 -6.890625 0.890625 -7.078125 C 0.691406 -7.265625 0.59375 -7.492188 0.59375 -7.765625 C 0.59375 -8.035156 0.691406 -8.265625 0.890625 -8.453125 C 1.085938 -8.640625 1.347656 -8.734375 1.671875 -8.734375 C 1.992188 -8.734375 2.253906 -8.644531 2.453125 -8.46875 C 2.648438 -8.289062 2.75 -8.066406 2.75 -7.796875 C 2.75 -7.503906 2.648438 -7.265625 2.453125 -7.078125 C 2.253906 -6.890625 1.992188 -6.796875 1.671875 -6.796875 Z M 1.671875 -6.796875 "/></g></g></g><g fill="#ff6825" fill-opacity="0.4"><g transform="translate(10.276113, 11.571165)"><g><path d="M 8.4375 -6.0625 C 9.1875 -6.0625 9.78125 -5.835938 10.21875 -5.390625 C 10.664062 -4.953125 10.890625 -4.296875 10.890625 -3.421875 L 10.890625 0 L 9.15625 0 L 9.15625 -3.15625 C 9.15625 -3.625 9.054688 -3.972656 8.859375 -4.203125 C 8.660156 -4.441406 8.378906 -4.5625 8.015625 -4.5625 C 7.609375 -4.5625 7.285156 -4.425781 7.046875 -4.15625 C 6.816406 -3.894531 6.703125 -3.507812 6.703125 -3 L 6.703125 0 L 4.96875 0 L 4.96875 -3.15625 C 4.96875 -4.09375 4.59375 -4.5625 3.84375 -4.5625 C 3.4375 -4.5625 3.113281 -4.425781 2.875 -4.15625 C 2.644531 -3.894531 2.53125 -3.507812 2.53125 -3 L 2.53125 0 L 0.796875 0 L 0.796875 -5.96875 L 2.453125 -5.96875 L 2.453125 -5.28125 C 2.671875 -5.53125 2.941406 -5.722656 3.265625 -5.859375 C 3.585938 -5.992188 3.941406 -6.0625 4.328125 -6.0625 C 4.742188 -6.0625 5.125 -5.976562 5.46875 -5.8125 C 5.8125 -5.644531 6.085938 -5.398438 6.296875 -5.078125 C 6.535156 -5.390625 6.84375 -5.628906 7.21875 -5.796875 C 7.59375 -5.972656 8 -6.0625 8.4375 -6.0625 Z M 8.4375 -6.0625 "/></g></g></g><g clip-path="url(#a178a1c5c4)"><g fill="#ff6825" fill-opacity="0.4"><g transform="translate(21.252893, 11.571165)"><g><path d="M 3.203125 -6.0625 C 4.128906 -6.0625 4.835938 -5.835938 5.328125 -5.390625 C 5.828125 -4.953125 6.078125 -4.289062 6.078125 -3.40625 L 6.078125 0 L 4.453125 0 L 4.453125 -0.75 C 4.128906 -0.1875 3.523438 0.09375 2.640625 0.09375 C 2.179688 0.09375 1.78125 0.015625 1.4375 -0.140625 C 1.101562 -0.296875 0.847656 -0.507812 0.671875 -0.78125 C 0.492188 -1.0625 0.40625 -1.375 0.40625 -1.71875 C 0.40625 -2.269531 0.613281 -2.703125 1.03125 -3.015625 C 1.457031 -3.335938 2.101562 -3.5 2.96875 -3.5 L 4.34375 -3.5 C 4.34375 -3.882812 4.226562 -4.175781 4 -4.375 C 3.769531 -4.582031 3.425781 -4.6875 2.96875 -4.6875 C 2.65625 -4.6875 2.34375 -4.632812 2.03125 -4.53125 C 1.726562 -4.425781 1.46875 -4.289062 1.25 -4.125 L 0.625 -5.34375 C 0.957031 -5.570312 1.347656 -5.75 1.796875 -5.875 C 2.253906 -6 2.722656 -6.0625 3.203125 -6.0625 Z M 3.078125 -1.078125 C 3.367188 -1.078125 3.628906 -1.144531 3.859375 -1.28125 C 4.085938 -1.414062 4.25 -1.617188 4.34375 -1.890625 L 4.34375 -2.5 L 3.15625 -2.5 C 2.445312 -2.5 2.09375 -2.265625 2.09375 -1.796875 C 2.09375 -1.578125 2.179688 -1.398438 2.359375 -1.265625 C 2.535156 -1.140625 2.773438 -1.078125 3.078125 -1.078125 Z M 3.078125 -1.078125 "/></g></g></g></g><g fill="#d50c2d" fill-opacity="1"><g transform="translate(0.8073, 11.571165)"><g><path d="M 7.21875 -1.46875 L 7.21875 0 L 0.421875 0 L 0.421875 -1.171875 L 4.6875 -6.296875 L 0.515625 -6.296875 L 0.515625 -7.765625 L 7.046875 -7.765625 L 7.046875 -6.59375 L 2.796875 -1.46875 Z M 7.21875 -1.46875 "/></g></g></g><g fill="#d50c2d" fill-opacity="1"><g transform="translate(7.592931, 11.571165)"><g><path d="M 0.796875 -5.96875 L 2.53125 -5.96875 L 2.53125 0 L 0.796875 0 Z M 1.671875 -6.796875 C 1.347656 -6.796875 1.085938 -6.890625 0.890625 -7.078125 C 0.691406 -7.265625 0.59375 -7.492188 0.59375 -7.765625 C 0.59375 -8.035156 0.691406 -8.265625 0.890625 -8.453125 C 1.085938 -8.640625 1.347656 -8.734375 1.671875 -8.734375 C 1.992188 -8.734375 2.253906 -8.644531 2.453125 -8.46875 C 2.648438 -8.289062 2.75 -8.066406 2.75 -7.796875 C 2.75 -7.503906 2.648438 -7.265625 2.453125 -7.078125 C 2.253906 -6.890625 1.992188 -6.796875 1.671875 -6.796875 Z M 1.671875 -6.796875 "/></g></g></g><g fill="#d50c2d" fill-opacity="1"><g transform="translate(10.276113, 11.571165)"><g><path d="M 8.4375 -6.0625 C 9.1875 -6.0625 9.78125 -5.835938 10.21875 -5.390625 C 10.664062 -4.953125 10.890625 -4.296875 10.890625 -3.421875 L 10.890625 0 L 9.15625 0 L 9.15625 -3.15625 C 9.15625 -3.625 9.054688 -3.972656 8.859375 -4.203125 C 8.660156 -4.441406 8.378906 -4.5625 8.015625 -4.5625 C 7.609375 -4.5625 7.285156 -4.425781 7.046875 -4.15625 C 6.816406 -3.894531 6.703125 -3.507812 6.703125 -3 L 6.703125 0 L 4.96875 0 L 4.96875 -3.15625 C 4.96875 -4.09375 4.59375 -4.5625 3.84375 -4.5625 C 3.4375 -4.5625 3.113281 -4.425781 2.875 -4.15625 C 2.644531 -3.894531 2.53125 -3.507812 2.53125 -3 L 2.53125 0 L 0.796875 0 L 0.796875 -5.96875 L 2.453125 -5.96875 L 2.453125 -5.28125 C 2.671875 -5.53125 2.941406 -5.722656 3.265625 -5.859375 C 3.585938 -5.992188 3.941406 -6.0625 4.328125 -6.0625 C 4.742188 -6.0625 5.125 -5.976562 5.46875 -5.8125 C 5.8125 -5.644531 6.085938 -5.398438 6.296875 -5.078125 C 6.535156 -5.390625 6.84375 -5.628906 7.21875 -5.796875 C 7.59375 -5.972656 8 -6.0625 8.4375 -6.0625 Z M 8.4375 -6.0625 "/></g></g></g><g clip-path="url(#9e30cc7ee8)"><g fill="#d50c2d" fill-opacity="1"><g transform="translate(21.252893, 11.571165)"><g><path d="M 3.203125 -6.0625 C 4.128906 -6.0625 4.835938 -5.835938 5.328125 -5.390625 C 5.828125 -4.953125 6.078125 -4.289062 6.078125 -3.40625 L 6.078125 0 L 4.453125 0 L 4.453125 -0.75 C 4.128906 -0.1875 3.523438 0.09375 2.640625 0.09375 C 2.179688 0.09375 1.78125 0.015625 1.4375 -0.140625 C 1.101562 -0.296875 0.847656 -0.507812 0.671875 -0.78125 C 0.492188 -1.0625 0.40625 -1.375 0.40625 -1.71875 C 0.40625 -2.269531 0.613281 -2.703125 1.03125 -3.015625 C 1.457031 -3.335938 2.101562 -3.5 2.96875 -3.5 L 4.34375 -3.5 C 4.34375 -3.882812 4.226562 -4.175781 4 -4.375 C 3.769531 -4.582031 3.425781 -4.6875 2.96875 -4.6875 C 2.65625 -4.6875 2.34375 -4.632812 2.03125 -4.53125 C 1.726562 -4.425781 1.46875 -4.289062 1.25 -4.125 L 0.625 -5.34375 C 0.957031 -5.570312 1.347656 -5.75 1.796875 -5.875 C 2.253906 -6 2.722656 -6.0625 3.203125 -6.0625 Z M 3.078125 -1.078125 C 3.367188 -1.078125 3.628906 -1.144531 3.859375 -1.28125 C 4.085938 -1.414062 4.25 -1.617188 4.34375 -1.890625 L 4.34375 -2.5 L 3.15625 -2.5 C 2.445312 -2.5 2.09375 -2.265625 2.09375 -1.796875 C 2.09375 -1.578125 2.179688 -1.398438 2.359375 -1.265625 C 2.535156 -1.140625 2.773438 -1.078125 3.078125 -1.078125 Z M 3.078125 -1.078125 "/></g></g></g></g></g></g></g></g></g></svg>