<svg xmlns="http://www.w3.org/2000/svg" xmlns:xlink="http://www.w3.org/1999/xlink" width="100" zoomAndPan="magnify" viewBox="0 0 75 30.000001" height="40" preserveAspectRatio="xMidYMid meet" version="1.0"><defs><g/><clipPath id="5d14e0fac8"><path d="M 1.210938 0 L 73.789062 0 L 73.789062 29.03125 L 1.210938 29.03125 Z M 1.210938 0 " clip-rule="nonzero"/></clipPath><clipPath id="c5dc9f7a70"><path d="M 7 1.179688 L 19 1.179688 L 19 7 L 7 7 Z M 7 1.179688 " clip-rule="nonzero"/></clipPath><clipPath id="895ce9b2d5"><path d="M 3 7 L 25.160156 7 L 25.160156 28 L 3 28 Z M 3 7 " clip-rule="nonzero"/></clipPath><clipPath id="68b43d0b8c"><path d="M 1.210938 9 L 5 9 L 5 27 L 1.210938 27 Z M 1.210938 9 " clip-rule="nonzero"/></clipPath><clipPath id="f7fa9212cc"><path d="M 7 1.179688 L 19 1.179688 L 19 7 L 7 7 Z M 7 1.179688 " clip-rule="nonzero"/></clipPath><clipPath id="d78c98d0fd"><path d="M 0.453125 8 L 44.121094 8 L 44.121094 19.15625 L 0.453125 19.15625 Z M 0.453125 8 " clip-rule="nonzero"/></clipPath><clipPath id="cff5609abb"><path d="M 38 4 L 44.121094 4 L 44.121094 11 L 38 11 Z M 38 4 " clip-rule="nonzero"/></clipPath><clipPath id="cdc90323ae"><rect x="0" width="45" y="0" height="12"/></clipPath><clipPath id="e1531c01b6"><path d="M 0.453125 0.804688 L 22 0.804688 L 22 12 L 0.453125 12 Z M 0.453125 0.804688 " clip-rule="nonzero"/></clipPath><clipPath id="dc9045e278"><path d="M 16 4 L 21.359375 4 L 21.359375 9 L 16 9 Z M 16 4 " clip-rule="nonzero"/></clipPath><clipPath id="fac488c46f"><path d="M 16 4 L 21.359375 4 L 21.359375 9 L 16 9 Z M 16 4 " clip-rule="nonzero"/></clipPath><clipPath id="dec6417b0a"><rect x="0" width="22" y="0" height="12"/></clipPath><clipPath id="fd400d3ba9"><rect x="0" width="45" y="0" height="20"/></clipPath></defs><g clip-path="url(#5d14e0fac8)"><path fill="#ffffff" d="M 1.210938 0 L 73.789062 0 L 73.789062 29.03125 L 1.210938 29.03125 Z M 1.210938 0 " fill-opacity="1" fill-rule="nonzero"/><path fill="#fafafa" d="M 1.210938 0 L 73.789062 0 L 73.789062 29.03125 L 1.210938 29.03125 Z M 1.210938 0 " fill-opacity="1" fill-rule="nonzero"/></g><g clip-path="url(#c5dc9f7a70)"><path fill="#d50c2d" d="M 18.789062 6.855469 L 17.570312 6.855469 C 17.5625 4.441406 15.601562 2.488281 13.1875 2.488281 C 10.773438 2.488281 8.816406 4.4375 8.804688 6.847656 L 7.59375 6.847656 C 7.59375 6.753906 7.589844 6.660156 7.59375 6.570312 C 7.75 3.613281 10.195312 1.269531 13.1875 1.269531 C 16.183594 1.269531 18.632812 3.621094 18.78125 6.582031 C 18.785156 6.609375 18.785156 6.636719 18.785156 6.664062 C 18.789062 6.714844 18.789062 6.765625 18.789062 6.816406 C 18.789062 6.828125 18.789062 6.84375 18.789062 6.855469 Z M 18.789062 6.855469 " fill-opacity="1" fill-rule="evenodd"/></g><g clip-path="url(#895ce9b2d5)"><path fill="#d50c2d" d="M 25.03125 24.652344 C 24.871094 23.082031 24.71875 21.515625 24.558594 19.945312 C 24.476562 19.132812 24.390625 18.316406 24.304688 17.5 C 24.230469 16.804688 24.160156 16.113281 24.089844 15.417969 C 23.945312 14.03125 23.808594 12.640625 23.664062 11.253906 C 23.601562 10.625 23.527344 9.996094 23.457031 9.347656 L 21.914062 9.347656 C 21.855469 8.8125 21.796875 8.296875 21.738281 7.769531 L 5.1875 7.769531 C 4.734375 14.453125 4.28125 21.128906 3.832031 27.8125 L 22.53125 27.8125 L 22.167969 18.574219 L 22.640625 18.574219 C 22.886719 21.332031 23.128906 24.078125 23.375 26.882812 C 23.917969 26.238281 24.410156 25.640625 24.917969 25.054688 C 25.023438 24.929688 25.050781 24.808594 25.03125 24.652344 Z M 5.441406 26.796875 L 5.90625 14.761719 L 7.011719 25.414062 L 15.949219 26.796875 Z M 5.441406 26.796875 " fill-opacity="1" fill-rule="evenodd"/></g><g clip-path="url(#68b43d0b8c)"><path fill="#3c3c3b" d="M 4.195312 9.347656 C 3.789062 15.207031 3.386719 21.039062 2.976562 26.945312 C 2.707031 26.640625 2.488281 26.394531 2.273438 26.144531 C 2.078125 25.921875 1.894531 25.6875 1.703125 25.460938 C 1.195312 24.867188 1.203125 24.867188 1.28125 24.09375 C 1.464844 22.304688 1.640625 20.515625 1.816406 18.726562 C 2.027344 16.617188 2.234375 14.503906 2.441406 12.394531 C 2.535156 11.460938 2.625 10.523438 2.703125 9.585938 C 2.71875 9.394531 2.777344 9.335938 2.972656 9.339844 C 3.363281 9.355469 3.761719 9.347656 4.195312 9.347656 Z M 4.195312 9.347656 " fill-opacity="1" fill-rule="evenodd"/></g><g clip-path="url(#f7fa9212cc)"><path fill="#d50c2d" d="M 18.789062 6.816406 C 18.789062 6.765625 18.789062 6.714844 18.789062 6.664062 C 18.785156 6.636719 18.785156 6.609375 18.785156 6.582031 C 18.632812 3.621094 16.183594 1.269531 13.1875 1.269531 C 10.195312 1.269531 7.75 3.613281 7.59375 6.570312 C 7.585938 6.667969 7.585938 6.769531 7.585938 6.871094 L 8.804688 6.871094 L 8.804688 6.847656 C 8.820312 4.4375 10.777344 2.488281 13.1875 2.488281 C 15.601562 2.488281 17.5625 4.441406 17.570312 6.855469 L 17.570312 6.871094 L 18.789062 6.871094 L 18.789062 6.855469 C 18.789062 6.84375 18.789062 6.828125 18.789062 6.816406 Z M 18.789062 6.816406 " fill-opacity="1" fill-rule="evenodd"/></g><g transform="matrix(1, 0, 0, 1, 27, 5)"><g clip-path="url(#fd400d3ba9)"><g clip-path="url(#d78c98d0fd)"><g transform="matrix(1, 0, 0, 1, 0.000000000000003553, 8)"><g clip-path="url(#cdc90323ae)"><g fill="#3c3c3b" fill-opacity="1"><g transform="translate(0.47928, 8.922046)"><g><path d="M 3.28125 -5.890625 C 3.8125 -5.890625 4.273438 -5.800781 4.671875 -5.625 C 5.066406 -5.445312 5.367188 -5.191406 5.578125 -4.859375 C 5.796875 -4.535156 5.90625 -4.15625 5.90625 -3.71875 C 5.90625 -3.269531 5.796875 -2.882812 5.578125 -2.5625 C 5.367188 -2.238281 5.066406 -1.988281 4.671875 -1.8125 C 4.273438 -1.632812 3.8125 -1.546875 3.28125 -1.546875 L 2.25 -1.546875 L 2.25 0 L 0.59375 0 L 0.59375 -5.890625 Z M 3.1875 -2.859375 C 3.53125 -2.859375 3.785156 -2.929688 3.953125 -3.078125 C 4.128906 -3.222656 4.21875 -3.4375 4.21875 -3.71875 C 4.21875 -3.988281 4.128906 -4.195312 3.953125 -4.34375 C 3.785156 -4.5 3.53125 -4.578125 3.1875 -4.578125 L 2.25 -4.578125 L 2.25 -2.859375 Z M 3.1875 -2.859375 "/></g></g></g><g fill="#3c3c3b" fill-opacity="1"><g transform="translate(6.189065, 8.922046)"><g><path d="M 2.453125 -4.640625 C 3.210938 -4.640625 3.789062 -4.46875 4.1875 -4.125 C 4.59375 -3.78125 4.796875 -3.25 4.796875 -2.53125 L 4.796875 0 L 3.296875 0 L 3.296875 -0.59375 C 3.066406 -0.144531 2.617188 0.078125 1.953125 0.078125 C 1.597656 0.078125 1.289062 0.015625 1.03125 -0.109375 C 0.78125 -0.234375 0.585938 -0.398438 0.453125 -0.609375 C 0.316406 -0.816406 0.25 -1.054688 0.25 -1.328125 C 0.25 -1.765625 0.414062 -2.097656 0.75 -2.328125 C 1.082031 -2.566406 1.59375 -2.6875 2.28125 -2.6875 L 3.1875 -2.6875 C 3.164062 -3.175781 2.84375 -3.421875 2.21875 -3.421875 C 2 -3.421875 1.773438 -3.382812 1.546875 -3.3125 C 1.328125 -3.238281 1.140625 -3.144531 0.984375 -3.03125 L 0.453125 -4.109375 C 0.703125 -4.273438 1.003906 -4.40625 1.359375 -4.5 C 1.722656 -4.59375 2.085938 -4.640625 2.453125 -4.640625 Z M 2.40625 -0.9375 C 2.582031 -0.9375 2.738281 -0.976562 2.875 -1.0625 C 3.019531 -1.15625 3.125 -1.289062 3.1875 -1.46875 L 3.1875 -1.859375 L 2.5 -1.859375 C 2.03125 -1.859375 1.796875 -1.703125 1.796875 -1.390625 C 1.796875 -1.253906 1.847656 -1.144531 1.953125 -1.0625 C 2.066406 -0.976562 2.21875 -0.9375 2.40625 -0.9375 Z M 2.40625 -0.9375 "/></g></g></g><g fill="#3c3c3b" fill-opacity="1"><g transform="translate(10.980893, 8.922046)"><g><path d="M 2.84375 0.078125 C 2.34375 0.078125 1.890625 -0.0195312 1.484375 -0.21875 C 1.085938 -0.425781 0.78125 -0.707031 0.5625 -1.0625 C 0.34375 -1.425781 0.234375 -1.835938 0.234375 -2.296875 C 0.234375 -2.742188 0.34375 -3.144531 0.5625 -3.5 C 0.78125 -3.863281 1.085938 -4.144531 1.484375 -4.34375 C 1.890625 -4.539062 2.34375 -4.640625 2.84375 -4.640625 C 3.363281 -4.640625 3.8125 -4.523438 4.1875 -4.296875 C 4.5625 -4.078125 4.828125 -3.773438 4.984375 -3.390625 L 3.75 -2.75 C 3.539062 -3.164062 3.238281 -3.375 2.84375 -3.375 C 2.550781 -3.375 2.3125 -3.273438 2.125 -3.078125 C 1.9375 -2.890625 1.84375 -2.628906 1.84375 -2.296875 C 1.84375 -1.953125 1.9375 -1.679688 2.125 -1.484375 C 2.3125 -1.296875 2.550781 -1.203125 2.84375 -1.203125 C 3.238281 -1.203125 3.539062 -1.40625 3.75 -1.8125 L 4.984375 -1.171875 C 4.828125 -0.785156 4.5625 -0.476562 4.1875 -0.25 C 3.8125 -0.03125 3.363281 0.078125 2.84375 0.078125 Z M 2.84375 0.078125 "/></g></g></g><g fill="#3c3c3b" fill-opacity="1"><g transform="translate(15.562179, 8.922046)"><g><path d="M 2.578125 -1.59375 L 2.109375 -1.125 L 2.109375 0 L 0.515625 0 L 0.515625 -6.25 L 2.109375 -6.25 L 2.109375 -2.96875 L 3.75 -4.5625 L 5.640625 -4.5625 L 3.75 -2.609375 L 5.796875 0 L 3.859375 0 Z M 2.578125 -1.59375 "/></g></g></g><g fill="#3c3c3b" fill-opacity="1"><g transform="translate(20.842461, 8.922046)"><g><path d="M 2.453125 -4.640625 C 3.210938 -4.640625 3.789062 -4.46875 4.1875 -4.125 C 4.59375 -3.78125 4.796875 -3.25 4.796875 -2.53125 L 4.796875 0 L 3.296875 0 L 3.296875 -0.59375 C 3.066406 -0.144531 2.617188 0.078125 1.953125 0.078125 C 1.597656 0.078125 1.289062 0.015625 1.03125 -0.109375 C 0.78125 -0.234375 0.585938 -0.398438 0.453125 -0.609375 C 0.316406 -0.816406 0.25 -1.054688 0.25 -1.328125 C 0.25 -1.765625 0.414062 -2.097656 0.75 -2.328125 C 1.082031 -2.566406 1.59375 -2.6875 2.28125 -2.6875 L 3.1875 -2.6875 C 3.164062 -3.175781 2.84375 -3.421875 2.21875 -3.421875 C 2 -3.421875 1.773438 -3.382812 1.546875 -3.3125 C 1.328125 -3.238281 1.140625 -3.144531 0.984375 -3.03125 L 0.453125 -4.109375 C 0.703125 -4.273438 1.003906 -4.40625 1.359375 -4.5 C 1.722656 -4.59375 2.085938 -4.640625 2.453125 -4.640625 Z M 2.40625 -0.9375 C 2.582031 -0.9375 2.738281 -0.976562 2.875 -1.0625 C 3.019531 -1.15625 3.125 -1.289062 3.1875 -1.46875 L 3.1875 -1.859375 L 2.5 -1.859375 C 2.03125 -1.859375 1.796875 -1.703125 1.796875 -1.390625 C 1.796875 -1.253906 1.847656 -1.144531 1.953125 -1.0625 C 2.066406 -0.976562 2.21875 -0.9375 2.40625 -0.9375 Z M 2.40625 -0.9375 "/></g></g></g><g fill="#3c3c3b" fill-opacity="1"><g transform="translate(25.634288, 8.922046)"><g><path d="M 5.421875 -4.5625 L 5.421875 -0.828125 C 5.421875 0.015625 5.191406 0.644531 4.734375 1.0625 C 4.273438 1.488281 3.613281 1.703125 2.75 1.703125 C 2.300781 1.703125 1.878906 1.648438 1.484375 1.546875 C 1.085938 1.453125 0.753906 1.304688 0.484375 1.109375 L 1.0625 -0.015625 C 1.25 0.140625 1.484375 0.257812 1.765625 0.34375 C 2.046875 0.4375 2.328125 0.484375 2.609375 0.484375 C 3.023438 0.484375 3.332031 0.390625 3.53125 0.203125 C 3.726562 0.015625 3.828125 -0.257812 3.828125 -0.625 L 3.828125 -0.78125 C 3.515625 -0.414062 3.0625 -0.234375 2.46875 -0.234375 C 2.0625 -0.234375 1.6875 -0.320312 1.34375 -0.5 C 1 -0.6875 0.726562 -0.945312 0.53125 -1.28125 C 0.332031 -1.613281 0.234375 -2 0.234375 -2.4375 C 0.234375 -2.875 0.332031 -3.257812 0.53125 -3.59375 C 0.726562 -3.925781 1 -4.179688 1.34375 -4.359375 C 1.6875 -4.546875 2.0625 -4.640625 2.46875 -4.640625 C 3.113281 -4.640625 3.59375 -4.429688 3.90625 -4.015625 L 3.90625 -4.5625 Z M 2.84375 -1.5 C 3.132812 -1.5 3.375 -1.585938 3.5625 -1.765625 C 3.75 -1.941406 3.84375 -2.164062 3.84375 -2.4375 C 3.84375 -2.71875 3.75 -2.941406 3.5625 -3.109375 C 3.375 -3.285156 3.132812 -3.375 2.84375 -3.375 C 2.550781 -3.375 2.3125 -3.285156 2.125 -3.109375 C 1.9375 -2.941406 1.84375 -2.71875 1.84375 -2.4375 C 1.84375 -2.164062 1.9375 -1.941406 2.125 -1.765625 C 2.320312 -1.585938 2.5625 -1.5 2.84375 -1.5 Z M 2.84375 -1.5 "/></g></g></g><g fill="#3c3c3b" fill-opacity="1"><g transform="translate(31.074581, 8.922046)"><g><path d="M 0.515625 -4.5625 L 2.109375 -4.5625 L 2.109375 0 L 0.515625 0 Z M 1.3125 -5.0625 C 1.019531 -5.0625 0.785156 -5.144531 0.609375 -5.3125 C 0.429688 -5.476562 0.34375 -5.679688 0.34375 -5.921875 C 0.34375 -6.160156 0.429688 -6.359375 0.609375 -6.515625 C 0.785156 -6.679688 1.019531 -6.765625 1.3125 -6.765625 C 1.601562 -6.765625 1.835938 -6.6875 2.015625 -6.53125 C 2.203125 -6.382812 2.296875 -6.191406 2.296875 -5.953125 C 2.296875 -5.691406 2.203125 -5.476562 2.015625 -5.3125 C 1.835938 -5.144531 1.601562 -5.0625 1.3125 -5.0625 Z M 1.3125 -5.0625 "/></g></g></g><g fill="#3c3c3b" fill-opacity="1"><g transform="translate(33.213594, 8.922046)"><g><path d="M 3.484375 -4.640625 C 4.054688 -4.640625 4.515625 -4.46875 4.859375 -4.125 C 5.203125 -3.789062 5.375 -3.285156 5.375 -2.609375 L 5.375 0 L 3.765625 0 L 3.765625 -2.34375 C 3.765625 -2.96875 3.519531 -3.28125 3.03125 -3.28125 C 2.75 -3.28125 2.523438 -3.191406 2.359375 -3.015625 C 2.191406 -2.835938 2.109375 -2.566406 2.109375 -2.203125 L 2.109375 0 L 0.515625 0 L 0.515625 -4.5625 L 2.03125 -4.5625 L 2.03125 -4.0625 C 2.21875 -4.25 2.429688 -4.390625 2.671875 -4.484375 C 2.921875 -4.585938 3.191406 -4.640625 3.484375 -4.640625 Z M 3.484375 -4.640625 "/></g></g></g><g clip-path="url(#cff5609abb)"><g fill="#3c3c3b" fill-opacity="1"><g transform="translate(38.578094, 8.922046)"><g><path d="M 5.421875 -4.5625 L 5.421875 -0.828125 C 5.421875 0.015625 5.191406 0.644531 4.734375 1.0625 C 4.273438 1.488281 3.613281 1.703125 2.75 1.703125 C 2.300781 1.703125 1.878906 1.648438 1.484375 1.546875 C 1.085938 1.453125 0.753906 1.304688 0.484375 1.109375 L 1.0625 -0.015625 C 1.25 0.140625 1.484375 0.257812 1.765625 0.34375 C 2.046875 0.4375 2.328125 0.484375 2.609375 0.484375 C 3.023438 0.484375 3.332031 0.390625 3.53125 0.203125 C 3.726562 0.015625 3.828125 -0.257812 3.828125 -0.625 L 3.828125 -0.78125 C 3.515625 -0.414062 3.0625 -0.234375 2.46875 -0.234375 C 2.0625 -0.234375 1.6875 -0.320312 1.34375 -0.5 C 1 -0.6875 0.726562 -0.945312 0.53125 -1.28125 C 0.332031 -1.613281 0.234375 -2 0.234375 -2.4375 C 0.234375 -2.875 0.332031 -3.257812 0.53125 -3.59375 C 0.726562 -3.925781 1 -4.179688 1.34375 -4.359375 C 1.6875 -4.546875 2.0625 -4.640625 2.46875 -4.640625 C 3.113281 -4.640625 3.59375 -4.429688 3.90625 -4.015625 L 3.90625 -4.5625 Z M 2.84375 -1.5 C 3.132812 -1.5 3.375 -1.585938 3.5625 -1.765625 C 3.75 -1.941406 3.84375 -2.164062 3.84375 -2.4375 C 3.84375 -2.71875 3.75 -2.941406 3.5625 -3.109375 C 3.375 -3.285156 3.132812 -3.375 2.84375 -3.375 C 2.550781 -3.375 2.3125 -3.285156 2.125 -3.109375 C 1.9375 -2.941406 1.84375 -2.71875 1.84375 -2.4375 C 1.84375 -2.164062 1.9375 -1.941406 2.125 -1.765625 C 2.320312 -1.585938 2.5625 -1.5 2.84375 -1.5 Z M 2.84375 -1.5 "/></g></g></g></g></g></g></g><g clip-path="url(#e1531c01b6)"><g transform="matrix(1, 0, 0, 1, 0.000000000000003553, 0.000000000000005329)"><g clip-path="url(#dec6417b0a)"><g fill="#ff6825" fill-opacity="0.4"><g transform="translate(0.987088, 8.922912)"><g><path d="M 5.46875 -1.109375 L 5.46875 0 L 0.3125 0 L 0.3125 -0.890625 L 3.546875 -4.78125 L 0.390625 -4.78125 L 0.390625 -5.890625 L 5.34375 -5.890625 L 5.34375 -5.015625 L 2.125 -1.109375 Z M 5.46875 -1.109375 "/></g></g></g><g fill="#ff6825" fill-opacity="0.4"><g transform="translate(6.141637, 8.922912)"><g><path d="M 0.609375 -4.53125 L 1.921875 -4.53125 L 1.921875 0 L 0.609375 0 Z M 1.265625 -5.15625 C 1.023438 -5.15625 0.828125 -5.222656 0.671875 -5.359375 C 0.523438 -5.503906 0.453125 -5.679688 0.453125 -5.890625 C 0.453125 -6.097656 0.523438 -6.269531 0.671875 -6.40625 C 0.828125 -6.550781 1.023438 -6.625 1.265625 -6.625 C 1.503906 -6.625 1.703125 -6.554688 1.859375 -6.421875 C 2.015625 -6.285156 2.09375 -6.117188 2.09375 -5.921875 C 2.09375 -5.703125 2.015625 -5.519531 1.859375 -5.375 C 1.703125 -5.226562 1.503906 -5.15625 1.265625 -5.15625 Z M 1.265625 -5.15625 "/></g></g></g><g fill="#ff6825" fill-opacity="0.4"><g transform="translate(8.179855, 8.922912)"><g><path d="M 6.40625 -4.59375 C 6.976562 -4.59375 7.429688 -4.425781 7.765625 -4.09375 C 8.097656 -3.757812 8.265625 -3.257812 8.265625 -2.59375 L 8.265625 0 L 6.953125 0 L 6.953125 -2.390625 C 6.953125 -2.753906 6.875 -3.023438 6.71875 -3.203125 C 6.570312 -3.378906 6.363281 -3.46875 6.09375 -3.46875 C 5.78125 -3.46875 5.535156 -3.363281 5.359375 -3.15625 C 5.179688 -2.957031 5.09375 -2.664062 5.09375 -2.28125 L 5.09375 0 L 3.765625 0 L 3.765625 -2.390625 C 3.765625 -3.109375 3.476562 -3.46875 2.90625 -3.46875 C 2.601562 -3.46875 2.363281 -3.363281 2.1875 -3.15625 C 2.007812 -2.957031 1.921875 -2.664062 1.921875 -2.28125 L 1.921875 0 L 0.609375 0 L 0.609375 -4.53125 L 1.859375 -4.53125 L 1.859375 -4.015625 C 2.023438 -4.203125 2.226562 -4.34375 2.46875 -4.4375 C 2.71875 -4.539062 2.988281 -4.59375 3.28125 -4.59375 C 3.601562 -4.59375 3.894531 -4.53125 4.15625 -4.40625 C 4.414062 -4.28125 4.625 -4.097656 4.78125 -3.859375 C 4.957031 -4.097656 5.1875 -4.28125 5.46875 -4.40625 C 5.757812 -4.53125 6.070312 -4.59375 6.40625 -4.59375 Z M 6.40625 -4.59375 "/></g></g></g><g clip-path="url(#dc9045e278)"><g fill="#ff6825" fill-opacity="0.4"><g transform="translate(16.518116, 8.922912)"><g><path d="M 2.4375 -4.59375 C 3.132812 -4.59375 3.671875 -4.425781 4.046875 -4.09375 C 4.421875 -3.757812 4.609375 -3.253906 4.609375 -2.578125 L 4.609375 0 L 3.390625 0 L 3.390625 -0.5625 C 3.140625 -0.144531 2.675781 0.0625 2 0.0625 C 1.65625 0.0625 1.351562 0.00390625 1.09375 -0.109375 C 0.84375 -0.222656 0.648438 -0.382812 0.515625 -0.59375 C 0.378906 -0.800781 0.3125 -1.039062 0.3125 -1.3125 C 0.3125 -1.726562 0.46875 -2.054688 0.78125 -2.296875 C 1.101562 -2.535156 1.59375 -2.65625 2.25 -2.65625 L 3.296875 -2.65625 C 3.296875 -2.945312 3.207031 -3.164062 3.03125 -3.3125 C 2.863281 -3.46875 2.601562 -3.546875 2.25 -3.546875 C 2.007812 -3.546875 1.773438 -3.507812 1.546875 -3.4375 C 1.316406 -3.363281 1.117188 -3.265625 0.953125 -3.140625 L 0.484375 -4.046875 C 0.722656 -4.222656 1.015625 -4.359375 1.359375 -4.453125 C 1.710938 -4.546875 2.070312 -4.59375 2.4375 -4.59375 Z M 2.328125 -0.8125 C 2.554688 -0.8125 2.753906 -0.863281 2.921875 -0.96875 C 3.097656 -1.070312 3.222656 -1.226562 3.296875 -1.4375 L 3.296875 -1.890625 L 2.40625 -1.890625 C 1.863281 -1.890625 1.59375 -1.710938 1.59375 -1.359375 C 1.59375 -1.191406 1.65625 -1.054688 1.78125 -0.953125 C 1.914062 -0.859375 2.097656 -0.8125 2.328125 -0.8125 Z M 2.328125 -0.8125 "/></g></g></g></g><g fill="#d50c2d" fill-opacity="1"><g transform="translate(0.987088, 8.922912)"><g><path d="M 5.46875 -1.109375 L 5.46875 0 L 0.3125 0 L 0.3125 -0.890625 L 3.546875 -4.78125 L 0.390625 -4.78125 L 0.390625 -5.890625 L 5.34375 -5.890625 L 5.34375 -5.015625 L 2.125 -1.109375 Z M 5.46875 -1.109375 "/></g></g></g><g fill="#d50c2d" fill-opacity="1"><g transform="translate(6.141637, 8.922912)"><g><path d="M 0.609375 -4.53125 L 1.921875 -4.53125 L 1.921875 0 L 0.609375 0 Z M 1.265625 -5.15625 C 1.023438 -5.15625 0.828125 -5.222656 0.671875 -5.359375 C 0.523438 -5.503906 0.453125 -5.679688 0.453125 -5.890625 C 0.453125 -6.097656 0.523438 -6.269531 0.671875 -6.40625 C 0.828125 -6.550781 1.023438 -6.625 1.265625 -6.625 C 1.503906 -6.625 1.703125 -6.554688 1.859375 -6.421875 C 2.015625 -6.285156 2.09375 -6.117188 2.09375 -5.921875 C 2.09375 -5.703125 2.015625 -5.519531 1.859375 -5.375 C 1.703125 -5.226562 1.503906 -5.15625 1.265625 -5.15625 Z M 1.265625 -5.15625 "/></g></g></g><g fill="#d50c2d" fill-opacity="1"><g transform="translate(8.179855, 8.922912)"><g><path d="M 6.40625 -4.59375 C 6.976562 -4.59375 7.429688 -4.425781 7.765625 -4.09375 C 8.097656 -3.757812 8.265625 -3.257812 8.265625 -2.59375 L 8.265625 0 L 6.953125 0 L 6.953125 -2.390625 C 6.953125 -2.753906 6.875 -3.023438 6.71875 -3.203125 C 6.570312 -3.378906 6.363281 -3.46875 6.09375 -3.46875 C 5.78125 -3.46875 5.535156 -3.363281 5.359375 -3.15625 C 5.179688 -2.957031 5.09375 -2.664062 5.09375 -2.28125 L 5.09375 0 L 3.765625 0 L 3.765625 -2.390625 C 3.765625 -3.109375 3.476562 -3.46875 2.90625 -3.46875 C 2.601562 -3.46875 2.363281 -3.363281 2.1875 -3.15625 C 2.007812 -2.957031 1.921875 -2.664062 1.921875 -2.28125 L 1.921875 0 L 0.609375 0 L 0.609375 -4.53125 L 1.859375 -4.53125 L 1.859375 -4.015625 C 2.023438 -4.203125 2.226562 -4.34375 2.46875 -4.4375 C 2.71875 -4.539062 2.988281 -4.59375 3.28125 -4.59375 C 3.601562 -4.59375 3.894531 -4.53125 4.15625 -4.40625 C 4.414062 -4.28125 4.625 -4.097656 4.78125 -3.859375 C 4.957031 -4.097656 5.1875 -4.28125 5.46875 -4.40625 C 5.757812 -4.53125 6.070312 -4.59375 6.40625 -4.59375 Z M 6.40625 -4.59375 "/></g></g></g><g clip-path="url(#fac488c46f)"><g fill="#d50c2d" fill-opacity="1"><g transform="translate(16.518116, 8.922912)"><g><path d="M 2.4375 -4.59375 C 3.132812 -4.59375 3.671875 -4.425781 4.046875 -4.09375 C 4.421875 -3.757812 4.609375 -3.253906 4.609375 -2.578125 L 4.609375 0 L 3.390625 0 L 3.390625 -0.5625 C 3.140625 -0.144531 2.675781 0.0625 2 0.0625 C 1.65625 0.0625 1.351562 0.00390625 1.09375 -0.109375 C 0.84375 -0.222656 0.648438 -0.382812 0.515625 -0.59375 C 0.378906 -0.800781 0.3125 -1.039062 0.3125 -1.3125 C 0.3125 -1.726562 0.46875 -2.054688 0.78125 -2.296875 C 1.101562 -2.535156 1.59375 -2.65625 2.25 -2.65625 L 3.296875 -2.65625 C 3.296875 -2.945312 3.207031 -3.164062 3.03125 -3.3125 C 2.863281 -3.46875 2.601562 -3.546875 2.25 -3.546875 C 2.007812 -3.546875 1.773438 -3.507812 1.546875 -3.4375 C 1.316406 -3.363281 1.117188 -3.265625 0.953125 -3.140625 L 0.484375 -4.046875 C 0.722656 -4.222656 1.015625 -4.359375 1.359375 -4.453125 C 1.710938 -4.546875 2.070312 -4.59375 2.4375 -4.59375 Z M 2.328125 -0.8125 C 2.554688 -0.8125 2.753906 -0.863281 2.921875 -0.96875 C 3.097656 -1.070312 3.222656 -1.226562 3.296875 -1.4375 L 3.296875 -1.890625 L 2.40625 -1.890625 C 1.863281 -1.890625 1.59375 -1.710938 1.59375 -1.359375 C 1.59375 -1.191406 1.65625 -1.054688 1.78125 -0.953125 C 1.914062 -0.859375 2.097656 -0.8125 2.328125 -0.8125 Z M 2.328125 -0.8125 "/></g></g></g></g></g></g></g></g></g></svg>